<svg xmlns="http://www.w3.org/2000/svg" width="104" height="148" viewBox="0 0 104 148">
  <title>Zasób 1</title>
  <g id="Warstwa_2" data-name="Warstwa 2">
    <g id="Warstwa_3" data-name="Warstwa 3">
      <g>
        <polygon points="36 113 33 130 50 140 67 130 64 113 36 113" style="fill: #e5a38c;stroke: #000;stroke-miterlimit: 10;stroke-width: 0.25px"/>
        <polygon points="28 126 50 138 72 127 104 138 104 148 0 148 0 139 28 126"/>
        <polygon points="20 67 16 61 13 60 12 70 15 81 20 85 20 67" style="fill: #e5a38c;stroke: #000;stroke-miterlimit: 10;stroke-width: 0.25px"/>
        <polygon points="81 66 85 60 87 59 89 69 86 80 81 84 81 66" style="fill: #e5a38c;stroke: #000;stroke-miterlimit: 10;stroke-width: 0.25px"/>
        <path d="M18.59,66A44.22,44.22,0,0,1,19,78a12.8,12.8,0,0,1-2.41-4C16.75,72.05,17.58,67.47,18.59,66Z" style="fill: #5b4a42;opacity: 0.3"/>
        <path d="M81,66a44.24,44.24,0,0,0,0,12,11.75,11.75,0,0,0,2-4C82.84,72.05,82,67.47,81,66Z" style="fill: #5b4a42;opacity: 0.3"/>
        <path d="M19,35l.5,47.5,5,19a15.3,15.3,0,0,0,3,5l12.21,15.42a4.62,4.62,0,0,0,3,1.08H59a5.3,5.3,0,0,0,3.51-1.34l12-15.16a11.08,11.08,0,0,0,3-5l4-17L83,37,74,26H28Z" style="fill: #fcbca0;stroke: #000;stroke-miterlimit: 10;stroke-width: 0.25px"/>
        <circle cx="35.5" cy="60.08" r="2.5"/>
        <circle cx="67.5" cy="60" r="2.5"/>
        <path d="M25,54.5a46.55,46.55,0,0,1,19,0" style="fill: none;stroke: #000;stroke-linecap: round;stroke-miterlimit: 10;stroke-width: 2px"/>
        <path d="M58,54.5a46.55,46.55,0,0,1,19,0" style="fill: none;stroke: #000;stroke-linecap: round;stroke-miterlimit: 10;stroke-width: 2px"/>
        <path d="M62.5,96.5l-3,2c-5.93,2-11.94,1.74-18,0l-2-2" style="fill: none;stroke: #000;stroke-linecap: round;stroke-miterlimit: 10"/>
        <path d="M49,105a8.6,8.6,0,0,0,5,0" style="fill: none;stroke: #000;stroke-linecap: round;stroke-miterlimit: 10;stroke-width: 0.75px"/>
        <path d="M20,67l-4-2.5-3-6,1-29c-.06-2.11,1.48-6.54,3-8L26.06,8.11A29.09,29.09,0,0,1,46.21,0h4.7A31.28,31.28,0,0,1,76.8,13.74L84,35.5l1,22-1,5-4,4L78,39,68,46,59.5,35,50,47,36.5,36,30,46l-7-3Z"/>
        <path d="M50,122.08,51,35,26,34s-8,17-8,18,1,32,1,32l6,19,12.42,16.57A8.05,8.05,0,0,0,44,123h5A1,1,0,0,0,50,122.08Z" style="fill: #5b4a42;opacity: 0.04"/>
        <polyline points="47 84 49 86 52 86 54 84" style="fill: none;stroke: #000;stroke-linecap: round;stroke-miterlimit: 10"/>
      </g>
    </g>
  </g>
</svg>
