<svg xmlns="http://www.w3.org/2000/svg" width="3044" height="1238" viewBox="0 0 2644 1238">
  <title>BackIndexRam_3</title>
  <g id="Warstwa_2" data-name="Warstwa 2">
    <g id="Warstwa_4" data-name="Warstwa 4">
      <g>
        <rect x="1252.57" y="-1111.39" width="118" height="2340.77" transform="translate(1252.57 1370.57) rotate(-90)" style="fill: #d200f3"/>
        <polygon points="237.43 223.66 189.81 180 105.1 179.71 157 137.98 131.28 87.68 210.98 105.55 279.79 74.75 277.15 127.53 345.39 158.8 264.06 173.54 237.43 223.66" style="fill: #d200f3"/>
        <polygon points="103.14 889.01 189.32 861.49 189.32 672 149.21 672 149.21 650 189.32 650 189.32 0 0 0 0 1238 189.32 1238 189.32 914.52 103.14 889.01" style="fill: #d200f3"/>
        <polygon points="178.09 911 288.79 948 178.09 1000 178.09 911" style="fill: #d200f3"/>
        <g>
          <rect x="174.88" y="489" width="67.38" height="43" style="fill: #d200f3"/>
          <rect x="174.88" y="405" width="67.38" height="44" style="fill: #d200f3"/>
        </g>
        <polygon points="784.54 1120 827.85 1093 896.04 1135.5 784.54 1120" style="fill: #d200f3"/>
        <polygon points="1678.17 1120 1678.17 1130 1593.14 1130 1593.14 1120 784.54 1120 741.95 1146.55 699.35 1120 415.53 1120 415.53 1150 391.47 1150 391.47 1120 168.46 1120 168.46 1238 2481.96 1238 2481.96 1120 1678.17 1120" style="fill: #d200f3"/>
        <rect x="1678.17" y="1109" width="85.03" height="21" style="fill: #d200f3"/>
        <polygon points="1738.82 203.18 1668.69 168.34 1582.89 184.59 1614.38 132.25 1563.07 86.41 1652.66 88.91 1706.75 44.32 1730.62 98.2 1815.37 116.49 1740.54 147.29 1738.82 203.18" style="fill: #d200f3"/>
        <rect x="2043.69" y="1081" width="21.13" height="44" style="fill: #d200f3"/>
        <polygon points="2050.38 1121 1980.25 1120.71 2043.97 1081 2050.38 1121" style="fill: #d200f3"/>
        <rect x="2424.2" y="1100.5" width="44.92" height="29.5" style="fill: #d200f3"/>
        <ellipse cx="190.12" cy="1119.5" rx="28.08" ry="17.5" style="fill: #d200f3"/>
        <rect x="2111.35" y="1081" width="22.46" height="44" style="fill: #d200f3"/>
        <polygon points="2482.73 153.5 2371.19 169.92 2292.61 117.92 2325.56 49.5 2437.1 33.08 2515.68 85.08 2482.73 153.5" style="fill: #d200f3"/>
        <rect x="2419.39" y="601" width="68.99" height="88" rx="12" style="fill: #d200f3"/>
        <path d="M2454.68,0V231H2498v75h-43.32V513h14.44c10.59,0,19.26,5.4,19.26,12v64c0,6.6-8.67,12-19.26,12h-14.44V845c16,0,28.88,8.06,28.88,18s-12.93,18-28.88,18v357H2644V0Z" style="fill: #d200f3"/>
        <ellipse cx="2454.68" cy="899" rx="28.88" ry="18" style="fill: #d200f3"/>
        <path d="M1146.21,1.85l-169,.85L893.89,94.35l85.69,90.8,3.94,0c0-.38,0-.75,0-1.13,0-27.61,35.91-50,80.22-50s80.22,22.39,80.22,50c0,.11,0,.21,0,.32l4.68,0,83.31-91.65Z" style="fill: #d200f3"/>
        <ellipse cx="1193.65" cy="1121" rx="54.55" ry="34" style="fill: #d200f3"/>
      </g>
    </g>
  </g>
</svg>
