<svg xmlns="http://www.w3.org/2000/svg" width="451.12" height="339.24" viewBox="0 0 451.12 339.24">
  <title>Blog Button</title>
  <g id="Warstwa_2" data-name="Warstwa 2">
    <g id="Warstwa_4" data-name="Warstwa 4">
      <g>
        <path d="M386.12,147.5c-25.58-7-35-21.83-29.65-43.83a1.81,1.81,0,0,1,.92-2.75,9.62,9.62,0,0,1,3.59-.35,16.38,16.38,0,0,0,10.33-2.37,98.56,98.56,0,0,1,24.54-11.31,10.75,10.75,0,0,0,6.16-5c4.21-7.52,1.63-9.91-7.54-7.31a10.68,10.68,0,0,0-2.9,1.31L372.76,88.07a6.74,6.74,0,0,1-5.66.8,67.3,67.3,0,0,0-17.3-3.05,13.08,13.08,0,0,0-8.23,2.54A40.24,40.24,0,0,1,329,94.07a7.13,7.13,0,0,1-7.39-2.25c2.81-11.79-4.42-18.23-19.16-20.48a1.58,1.58,0,0,1-1.19-2.25L329,17.14l-29.5,45.59c-7.36-4.4-12.63-3.59-16.22,1.35a.5.5,0,0,1-.89-.4l5.09-20.37a6.61,6.61,0,0,0-1.22-5.72c-4.58-5.78-6.25-5.39-6.17-1.33A38.63,38.63,0,0,1,275,56.76L270,65.17a6.51,6.51,0,0,1-5.61,3.21c-6.76-.83-13.58-8-16.94-12a1.89,1.89,0,0,0-3.25.61l-2.81,8.44a2.47,2.47,0,0,1-4.27.76l-24-30L203.69,4.28A6,6,0,0,0,198,0h-1.05a2.64,2.64,0,0,0-2.46,3.61l16,33.93c-.79,24.65-7.08,38.95-17.43,45.59l-8-6.7-5.37-16.09c-2.57-1.68-5-.17-6.75,1.67a4.44,4.44,0,0,0,.27,6.33L185,79.11c9,10.82,4.53,14.23-2.68,16.09-13.46,2.14-21.62-3.49-28.57-10.88a39.91,39.91,0,0,0-5.6-4.87C140.24,73.65,133.66,67.13,130,59c-2.53-19.13-14.57-28.33-28.81-35.24a.59.59,0,0,0-.73.87l28.2,39.73C131.32,70.81,139,78.79,147.23,87a.72.72,0,0,1-.61,1.23l-24.85-3.39a3.61,3.61,0,0,0-4,2.4c-.7,2.25.05,4.17,1.83,5.84a4.92,4.92,0,0,0,1.92,1.1c15.42,1.87,27.21,1,29.89,7.76,2.52,12.55-2.76,15.81-7.16,16.07a22.56,22.56,0,0,0-2.6.35c-13.91,2.5-32,1.77-51.47,0a3.46,3.46,0,0,0-3.79,3.23,6.59,6.59,0,0,0,2.15,5.69,6.38,6.38,0,0,0,4.28,1.48c23-.3,39.53,4.83,45.28,18.94a4.48,4.48,0,0,1-2.06,5.64c-21.69,12.87-42.49,24.81-58.62,31.82a41.7,41.7,0,0,1-12.85,3.26,157,157,0,0,1-25.46.61,53.57,53.57,0,0,1-19.79-5.6L12,179.67a7,7,0,0,0-5.8-.18c-7.13,3.06-7.71,6.87-3.82,11.19A11.53,11.53,0,0,0,11,194.43H25.42a49.14,49.14,0,0,0,9.89-1c7-1.43,22.89-2.19,38.38-3l17.58-.87a49.88,49.88,0,0,0,14.75-3c6.29-2.34,13.5-3.43,21.15-4a5.4,5.4,0,0,1,5.7,4.28c1.69,9.14-4.43,18.95-13.59,29H107.87a14.15,14.15,0,0,0-4.09.59c-7.5,2.24-8,4.31-4.49,6.28a12.15,12.15,0,0,0,11.36.13h0a13,13,0,0,1,6.91-1.33l6.11.51a15,15,0,0,0,11.13-3.67l3.59-3.13a1.41,1.41,0,0,1,2.35,1.06v1a2.13,2.13,0,0,0,2.55,2.09l.64-.12a1.13,1.13,0,0,1,1,1.89c-13.86,20.14-30.17,36.72-48,51.16a11.71,11.71,0,0,0-4.44,8.19c-.37,5.5,3.5,4.59,6,3.48a7,7,0,0,0,2.87-2.37c4.71-6.67,26.59-37,42-45.63,9.86.24,13.45,6.58,11,18.77a10,10,0,0,1-.9,2.58l-15.17,30.34a6.47,6.47,0,0,0,.61,6.82c3.25,4.24,6.52,4.6,9.81-.85l13.41-36.2c7.35-6.52,14.84-2.38,22.4,8.19a39.57,39.57,0,0,0,4.27,5.06l13.56,13.57,6.46,3.23a14.5,14.5,0,0,0,13.69-.39l1.41-.8a.62.62,0,0,1,.91.68l-3.35,14.54a5,5,0,0,0,.42,3.39c1,2.08,2.44,3,4.28,2.55a4.75,4.75,0,0,0,3.34-3.93L235.14,268a23.74,23.74,0,0,1,5.51-12.06c4.81-5.46,12.51-9.85,19.43,5.58l14.75,38.89c2.63,2.87,4.92,4.36,5.36-1.34l-11.36-45.46a13.7,13.7,0,0,1-.12-6.46c1.88-8,7.14-10.62,15.5-8.42l16.09,4c3.22,13.19,7.58,15.13,13.41,2.68,7.38-7,5.54-13.26-5.36-18.77l-3.07-2.46a3.09,3.09,0,0,1,.45-5.14c7.32-13,20.33-19.27,37.48-20.56,10.65,2.92,20.94,4.76,29.5,1.34l6.39-5.48a8.76,8.76,0,0,1,6.4-2.05,58.29,58.29,0,0,0,14.65-1.2,8.37,8.37,0,0,0,5.62-3.8c3.16-5.15,1.76-7.48-7.58-4.9a24.18,24.18,0,0,1-18.78,4l-24.12-7.67a2.78,2.78,0,0,1-.74-4.93l30.23-20.92c5.43-4.1,34.32-2.2,64.36,0,2.28-1.61,2.45-3.38,1.22-5.25a2.56,2.56,0,0,0-2.76-1C433.45,150.24,410.86,149.44,386.12,147.5Z" style="fill: #f121f8"/>
        <circle cx="319.07" cy="261.47" r="5.36" style="fill: #f121f8"/>
        <circle cx="332.48" cy="250.74" r="2.68" style="fill: #f121f8"/>
        <circle cx="339.19" cy="46.93" r="4.02" style="fill: #f121f8"/>
        <circle cx="187" cy="47.6" r="3.35" style="fill: #f121f8"/>
        <circle cx="150.79" cy="50.28" r="10.06" style="fill: #f121f8"/>
        <circle cx="89.11" cy="93.19" r="3.35" style="fill: #f121f8"/>
        <circle cx="73.69" cy="146.16" r="5.36" style="fill: #f121f8"/>
        <circle cx="45.54" cy="209.18" r="6.7" style="fill: #f121f8"/>
        <circle cx="56.26" cy="152.86" r="4.02" style="fill: #f121f8"/>
        <ellipse cx="195.04" cy="312.42" rx="4.69" ry="8.05" style="fill: #f121f8"/>
        <circle cx="203.09" cy="335.89" r="3.35" style="fill: #f121f8"/>
        <ellipse cx="398.56" cy="238.74" rx="9.5" ry="32.5" transform="translate(-23.98 431.89) rotate(-55.49)" style="fill: #f121f8"/>
        <circle cx="392.56" cy="273.74" r="6.5" style="fill: #f121f8"/>
        <circle cx="425.06" cy="284.24" r="4" style="fill: #f121f8"/>
        <circle cx="411.56" cy="163.74" r="1.5" style="fill: #f121f8"/>
        <path d="M284.31,313.79a1.5,1.5,0,0,0,0-3,1.5,1.5,0,0,0,0,3Z" style="fill: #f121f8"/>
        <path d="M320.88,220.72h9.35a1.5,1.5,0,0,0,0-3h-9.35a1.5,1.5,0,0,0,0,3Z" style="fill: #f121f8"/>
        <path d="M330.86,80.25c1.57-13.79,23.66-6.86,32.19-8.15,1.9-.29,1.09-3.18-.8-2.9-10.43,1.59-32.46-5.89-34.39,11-.22,1.92,2.78,1.9,3,0Z" style="fill: #f121f8"/>
        <path d="M410.56,264.65l.81,7.65c.2,1.91,3.2,1.93,3,0l-.81-7.65c-.2-1.9-3.2-1.92-3,0Z" style="fill: #f121f8"/>
        <path d="M437,259.92l8.5,8.51a1.5,1.5,0,0,0,2.12-2.13l-8.5-8.5a1.5,1.5,0,0,0-2.12,2.12Z" style="fill: #f121f8"/>
        <path d="M404.22,197.29H417a1.5,1.5,0,0,0,0-3H404.22a1.5,1.5,0,0,0,0,3Z" style="fill: #f121f8"/>
        <path d="M259.85,261.27v3.4a1.5,1.5,0,0,0,3,0v-3.4a1.5,1.5,0,0,0-3,0Z" style="fill: #f121f8"/>
        <path d="M265.6,266.16a14.44,14.44,0,0,1,13.11,6.11c1.09,1.57,3.7.07,2.59-1.52a17.47,17.47,0,0,0-15.7-7.59c-1.91.13-1.93,3.14,0,3Z" style="fill: #f121f8"/>
      </g>
    </g>
  </g>
</svg>
