<svg xmlns="http://www.w3.org/2000/svg" width="253" height="336.43" viewBox="0 0 253 336.43">
  <title>Blog Go button</title>
  <g id="Warstwa_2" data-name="Warstwa 2">
    <g id="Warstwa_4" data-name="Warstwa 4">
      <path d="M143,288c5.23-19.08,16.28-26.12,32.68-22.11a1.36,1.36,0,0,1,2.06.69,7.31,7.31,0,0,1,.26,2.68,12.18,12.18,0,0,0,1.76,7.69,73.47,73.47,0,0,1,8.44,18.31,8,8,0,0,0,3.72,4.59c5.61,3.14,7.39,1.22,5.45-5.62a7.78,7.78,0,0,0-1-2.16l-9.08-14a5.05,5.05,0,0,1-.6-4.23,50.27,50.27,0,0,0,2.28-12.9,9.83,9.83,0,0,0-1.89-6.14,29.54,29.54,0,0,1-4.26-9.38,5.29,5.29,0,0,1,1.67-5.51c8.79,2.09,13.6-3.3,15.27-14.29a1.19,1.19,0,0,1,1.68-.89l38.75,20.69-34-22c3.27-5.5,2.67-9.42-1-12.1a.37.37,0,0,1,.3-.66l15.19,3.79a4.92,4.92,0,0,0,4.27-.9c4.3-3.43,4-4.67,1-4.61a28.85,28.85,0,0,1-15.29-3.81l-6.28-3.69a4.86,4.86,0,0,1-2.39-4.19c.62-5,5.95-10.12,9-12.63a1.41,1.41,0,0,0-.45-2.42l-6.3-2.1a1.84,1.84,0,0,1-.57-3.18L226,159l23.81-7.05a4.47,4.47,0,0,0,3.19-4.28v-.78a2,2,0,0,0-2.69-1.83L225,157c-18.38-.59-29-5.29-34-13l5-6,12-4c1.25-1.92.13-3.73-1.24-5a3.31,3.31,0,0,0-4.73.19L194,138c-8.07,6.68-10.61,3.38-12-2-1.59-10,2.6-16.12,8.12-21.3a30.06,30.06,0,0,0,3.63-4.18c4.32-5.89,9.19-10.8,15.25-13.52,14.27-1.89,21.13-10.87,26.28-21.48a.44.44,0,0,0-.65-.55L205,96c-4.81,2-10.76,7.68-16.86,13.84a.54.54,0,0,1-.92-.45l2.53-18.54A2.69,2.69,0,0,0,188,87.87a4,4,0,0,0-4.35,1.36,3.78,3.78,0,0,0-.83,1.44C181.39,102.16,182,111,177,113c-9.36,1.87-11.79-2.06-12-5.34a16,16,0,0,0-.26-2c-1.86-10.37-1.32-23.86,0-38.38a2.59,2.59,0,0,0-2.41-2.83,4.91,4.91,0,0,0-4.24,1.61A4.78,4.78,0,0,0,157,69.26c.23,17.17-3.6,29.48-14.12,33.77a3.35,3.35,0,0,1-4.21-1.54C129.1,85.32,120.19,69.8,115,57.78a31.12,31.12,0,0,1-2.43-9.59,116.14,116.14,0,0,1-.45-19,39.71,39.71,0,0,1,4.18-14.75L119,9a5.14,5.14,0,0,0,.14-4.32c-2.28-5.32-5.12-5.75-8.35-2.85A8.6,8.6,0,0,0,108,8.18V19a36.52,36.52,0,0,0,.77,7.37c1.07,5.2,1.64,17.08,2.23,28.63l.66,13.11a36.68,36.68,0,0,0,2.22,11,56.93,56.93,0,0,1,3,15.77,4,4,0,0,1-3.19,4.25C106.82,100.35,99.5,95.78,92,89V80.45a10.47,10.47,0,0,0-.44-3c-1.67-5.6-3.22-6-4.69-3.35a9.07,9.07,0,0,0-.09,8.47h0a9.68,9.68,0,0,1,1,5.15l-.38,4.56a11.2,11.2,0,0,0,2.74,8.3l2.34,2.68a1.06,1.06,0,0,1-.8,1.75h-.73a1.59,1.59,0,0,0-1.56,1.9l.1.48a.85.85,0,0,1-1.42.78A181.63,181.63,0,0,1,49.91,72.35,8.75,8.75,0,0,0,43.8,69c-4.1-.28-3.42,2.61-2.59,4.45A5.27,5.27,0,0,0,43,75.64c5,3.51,27.56,19.82,34,31.32-.17,7.35-4.9,10-14,8.21a7.43,7.43,0,0,1-1.92-.67L38.45,103.19a4.81,4.81,0,0,0-5.09.45c-3.16,2.43-3.42,4.86.64,7.32l27,10c4.86,5.48,1.78,11.06-6.11,16.7a30.24,30.24,0,0,0-3.78,3.19L41,151l-2.41,4.82A10.81,10.81,0,0,0,38.88,166l.59,1a.46.46,0,0,1-.5.68l-10.85-2.5a3.73,3.73,0,0,0-2.52.31c-1.55.78-2.27,1.82-1.91,3.19a3.54,3.54,0,0,0,2.94,2.49l26.54,4.15a17.7,17.7,0,0,1,9,4.12c4.07,3.58,7.35,9.32-4.16,14.48L29,205c-2.14,2-3.25,3.67,1,4l33.9-8.48a10.2,10.2,0,0,1,4.82-.08c5.94,1.4,7.92,5.33,6.28,11.56l-3,12c-9.84,2.4-11.29,5.65-2,10,5.22,5.5,9.89,4.13,14-4l1.83-2.29a2.32,2.32,0,0,1,3.84.34c9.72,5.46,14.37,15.16,15.33,28-2.18,7.94-3.55,15.62-1,22l4.09,4.77a6.51,6.51,0,0,1,1.52,4.77,44.13,44.13,0,0,0,.9,10.93,6.18,6.18,0,0,0,2.84,4.18c3.83,2.36,5.57,1.32,3.65-5.65a18,18,0,0,1-3-14l5.72-18a2.07,2.07,0,0,1,3.68-.55L139,287c3.06,4.05,1.64,25.59,0,48,1.2,1.7,2.52,1.83,3.91.91a1.9,1.9,0,0,0,.77-2.06C141,323.26,141.55,306.41,143,288Z" style="fill: #f121f8"/>
      <circle cx="58" cy="237.96" r="4" style="fill: #f121f8"/>
      <circle cx="66" cy="247.96" r="2" style="fill: #f121f8"/>
      <circle cx="218" cy="252.96" r="3" style="fill: #f121f8"/>
      <circle cx="217.5" cy="139.46" r="2.5" style="fill: #f121f8"/>
      <circle cx="215.5" cy="112.46" r="7.5" style="fill: #f121f8"/>
      <circle cx="183.5" cy="66.46" r="2.5" style="fill: #f121f8"/>
      <circle cx="144" cy="54.96" r="4" style="fill: #f121f8"/>
      <circle cx="97" cy="33.96" r="5" style="fill: #f121f8"/>
      <circle cx="139" cy="41.96" r="3" style="fill: #f121f8"/>
      <ellipse cx="20" cy="145.46" rx="6" ry="3.5" style="fill: #f121f8"/>
      <circle cx="2.5" cy="151.46" r="2.5" style="fill: #f121f8"/>
    </g>
  </g>
</svg>
