<svg xmlns="http://www.w3.org/2000/svg" width="1200" height="37.39" viewBox="0 0 1200 37.39">
  <title>BottomBlogPostFoot</title>
  <g id="Warstwa_2" data-name="Warstwa 2">
    <g id="Warstwa_2-2" data-name="Warstwa 2">
      <g>
        <rect y="0.39" width="37" height="15" style="fill: #17445e"/>
        <polygon points="201.72 14.89 216.61 0 231.49 14.88 201.72 14.89" style="fill: #17445e"/>
        <polygon points="1147 13.39 1147 21.39 1094 21.39 1094 13.39 1051 13.39 1038 0.39 1024 14.39 950 14.39 864 14.39 864 0.39 799 0.39 799 14.39 768 14.39 688 14.39 678.5 23.89 669.5 14.89 609 14.89 585 14.89 585 19.39 532 19.39 532 14.89 446 14.89 0 14.89 0 37.39 1200 37.39 1200 13.39 1147 13.39" style="fill: #17445e"/>
        <rect x="308" y="2.39" width="77" height="14" style="fill: #17445e"/>
      </g>
    </g>
  </g>
</svg>
