<svg xmlns="http://www.w3.org/2000/svg" width="1200" height="37" viewBox="0 0 1200 37">
  <title>BottomBlogPostFoot_2</title>
  <g id="Warstwa_2" data-name="Warstwa 2">
    <g id="Warstwa_2-2" data-name="Warstwa 2">
      <g>
        <rect width="37" height="15" style="fill: #17445e"/>
        <polygon points="201.72 15.01 216.61 0.12 231.49 15 201.72 15.01" style="fill: #17445e"/>
        <polygon points="1147 13 1147 21 1094 21 1094 13 1051 13 1038 0 1024 14 950 14 864 14 864 0 799 0 799 14 768 14 688 14 678.5 23.5 669.5 14.5 609 14.5 585 14.5 585 19 532 19 532 14.5 446 14.5 0 14.5 0 37 1200 37 1200 13 1147 13" style="fill: #17445e"/>
        <rect x="308" y="2" width="77" height="14" style="fill: #17445e"/>
      </g>
    </g>
  </g>
</svg>
