<svg xmlns="http://www.w3.org/2000/svg" width="1200" height="22" viewBox="0 0 1200 22">
  <title>foot2</title>
  <g id="Warstwa_2" data-name="Warstwa 2">
    <g id="Warstwa_2-2" data-name="Warstwa 2">
      <polygon points="1200 22 1200 9 1110 9 1103.5 15.5 1088 0 1061 22 1051 11 992 11 940 11 933 4 917 4 910 11 865 11 865 15 854 15 854 11 792 11 787 16 770 7 751 11 621 11 578 16 516 11 397 11 397 15 385 15 385 11 360 11 360 0 338 0 338 11 209 11 194 0 169 11 82 11 82 16 67 16 67 11 0 11 0 22 1200 22" style="fill: #17445e"/>
    </g>
  </g>
</svg>
