<svg xmlns="http://www.w3.org/2000/svg" width="372.5" height="285.5" viewBox="0 0 372.5 285.5">
  <title>ImgPostBack</title>
  <g id="Warstwa_2" data-name="Warstwa 2">
    <g id="Warstwa_32" data-name="Warstwa 32">
      <rect x="357.5" y="228.5" width="15" height="23" style="fill: rgb(216, 216, 216)"/>
      <path d="M345.5,152.5v-25H361V0H338.5V1.5h-24V0H262.3A10.53,10.53,0,0,1,252,8.5H224A10.53,10.53,0,0,1,213.7,0H103.88l-2.49,26.92-21.63-20L51,13.41,57.2,0H0V101.5H9.5v33H0v20.34l11.4-1.35L1.13,170.79l8.42,18.27L0,186.9V273H49.5v-9.5h28V273H230.24L245,263l10,10H361V152.5Z" style="fill: rgb(216, 216, 216)"/>
      <rect x="357.5" y="20.5" width="7" height="34" style="fill: rgb(216, 216, 216)"/>
      <rect x="124.5" y="267.5" width="45" height="18" style="fill: rgb(216, 216, 216)"/>
    </g>
  </g>
</svg>
