<svg xmlns="http://www.w3.org/2000/svg" width="1925" height="1078" viewBox="0 0 1925 1078">
  <title>MainBackPrototype</title>
  <g id="Warstwa_2" data-name="Warstwa 2">
    <g id="Warstwa_17" data-name="Warstwa 17">
      <polygon points="4 483 1924 502 1924 0 4 0 4 483" style="fill: #ceecf5"/>
    </g>
    <g id="Warstwa_16" data-name="Warstwa 16">
      <path d="M41.5,442.5l63-53v-25a44.31,44.31,0,0,1,22.72-38.69L165.5,304.5l37,33,26,66,34,53v-53l114-117,78.05-169.56a53.16,53.16,0,0,1,28.86-27.27L585.5,49.5,642,98.43a52.86,52.86,0,0,1,15.16,22.12L705,254l68.5-85.5,89-37,54,272,81-49,80-140,53.39-44.76a52.42,52.42,0,0,1,33.67-12.24h43.94l37,13,21-27,52-4,22,85,168,147,82-33v-85l36-32,34,3,41,55,41,16,20,36L1819,235c24-11.22,40.73-25.73,45.5-53.5A114.14,114.14,0,0,1,1925,251V590L32.5,560.5Z" style="fill: #47a6a6"/>
    </g>
    <g id="Warstwa_15" data-name="Warstwa 15">
      <polygon points="4 406 27 431 103 445 124 472 245 448 321 406 376 448 408 480 457 462 488 380 632 310 773 254 780 215 814 215 831 181 877 181 901 239 901 281 964 472 1047 560 891 692 0 732 4 406" style="fill: #397f7f"/>
      <path d="M1078,389l59-48V268l74-75,59,115v55l116,109,27-131,41-61,97-67,34,102,104,74,100,159c-191.37,65.53-363.12,92.44-490,31l-211-70Z" style="fill: #397f7f"/>
    </g>
    <g id="Warstwa_12" data-name="Warstwa 12">
      <path d="M891,652,995,460c18.78-48.64,3.08-65.63-34-63,13.82-39.88,33.87-75.13,68-99.91a9.51,9.51,0,0,1,14,3.27l99.42,187.7a21.94,21.94,0,0,0,32,7.7L1184,489c38.73-54.88,83.6-92.4,138.15-102.6a43.4,43.4,0,0,1,16.69.21l17.52,3.59a39.35,39.35,0,0,1,22.48,13.56l50.27,61.2a43.54,43.54,0,0,1,9.89,27.63V516c7.58,24.08,34.65,55.33,66,60l56.38-76.83a34.38,34.38,0,0,1,17.94-8.88L1738,464l77-93,33,89,76-34V717Z" style="fill: #255757"/>
    </g>
    <g id="Warstwa_13" data-name="Warstwa 13">
      <polygon points="52 560 4 613 4 750 304 649 188 608 166 560 52 560" style="fill: #255757"/>
    </g>
    <g id="Warstwa_10" data-name="Warstwa 10">
      <g>
        <polygon points="202 686 289 642 292 591 404 562 637 410 777 380 902 519 916 686 633 717 202 686" style="fill: #255757"/>
        <polygon points="394 598 568 571 607 503 714 465 773 389 645 418 609 443 562 465 466 536 439 557 341 598 394 598" style="fill: #b1bf7f;opacity: 0.7000000000000001"/>
      </g>
    </g>
    <g id="Warstwa_14" data-name="Warstwa 14">
      <polygon points="1214 548 1098 651 1486 655 1924 717 1924 519 1865 472 1809 528 1731 494 1678 494 1641 547 1598 589 1500 567 1384 635 1296 540 1214 548" style="fill: #082a29"/>
      <polygon points="4 693 64 666 149 674 234 666 359 635 485 635 520 729 4 750 4 693" style="fill: #082a29"/>
    </g>
    <g id="Warstwa_11" data-name="Warstwa 11">
      <g>
        <path d="M617,712c136.35-113,1027.15-65,1027-19L838,792Z" style="fill: #6fb45b"/>
        <path d="M644,696c102.88,7.35,196.32,19.51,290,50,139.39-49.48,286.11-79.57,436-95L939,762Z" style="opacity: 0.2"/>
      </g>
    </g>
    <g id="Warstwa_7" data-name="Warstwa 7">
      <g>
        <path d="M4,734c111.2-43,251.28-60.29,411-60q369.75,23.12,654,111L4,1003Z" style="fill: #a3d22e"/>
        <path d="M4,909c199.2-6.09,361.12-10,502-44L942,750l10,2L536,899,4,928Z" style="opacity: 0.1"/>
      </g>
    </g>
    <g id="Warstwa_3" data-name="Warstwa 3">
      <path d="M4,916c214.25.48,415.18-14.49,584-60,369.44-121.49,725.06-224.67,1000-221,140.13,1.75,257,23.57,336,78v365H4Z" style="fill: #b6db58"/>
    </g>
    <g id="Warstwa_20" data-name="Warstwa 20">
      <polygon points="1338 877 1487 923 1634 911 1718 854 1649 838 1338 877" style="fill: #020202;opacity: 0.2"/>
    </g>
    <g id="Warstwa_19" data-name="Warstwa 19">
      <g>
        <path d="M1366.14,813.1l-16.23,29.64c-5.48,1.58-9.54,12.22-12.33,31a2.72,2.72,0,0,0,2,3l147.8,37.06a14.27,14.27,0,0,0,8.11-.35l69.35-24,86.4-46.93a5.31,5.31,0,0,0,2.75-5.22l-1.86-18a11,11,0,0,0-4.15-7.48l-22.36-17.45-8.08-21.15a10.25,10.25,0,0,0-6.06-6l-27.07-10-2.7-6.8a8.73,8.73,0,0,0-6.43-5.37L1535.05,737a8.73,8.73,0,0,0-3.34,0c-22.74-1.22-48.38,5.12-75,14.16a10.41,10.41,0,0,0-5.37,2.84L1424,781.34l-54,27.91A9.38,9.38,0,0,0,1366.14,813.1Z" style="fill: #958d78"/>
        <path d="M1526.59,735.56a240.16,240.16,0,0,0-71,15.3c8.88,15.67,23.46,26.57,46.55,30.34,22.95,1.17,45.58-7.05,68.06-19.65l11.53-10.44c.85-1.2-2.32-4.84-3.75-5.19l-47.75-10A12.07,12.07,0,0,0,1526.59,735.56Z" style="fill: #c6beab"/>
        <path d="M1495,820.07h0a3.86,3.86,0,0,0,2.55.82l27.53-1.39a7.73,7.73,0,0,0,2.24-.43l46.56-16.19a1.35,1.35,0,0,1,.49-.07l9,.44a7,7,0,0,0,4.86-1.64l29.66-25.11a1.29,1.29,0,0,0,.39-1.37c-.18-.59-.4-1.24-.64-1.81a1.29,1.29,0,0,0-2-.47l-29.54,25.89a5.89,5.89,0,0,1-4.15,1.44l-6.35-.32a6.48,6.48,0,0,0-2.47.37l-47.56,17.11a1.53,1.53,0,0,1-.36.07L1498.68,819C1498.41,819.05,1493.76,819.06,1495,820.07Z" style="fill: #cdc6b5;opacity: 0.5"/>
        <path d="M1343.32,854.43l30.12,18.51,83.65,9.16-80.3,4a36.53,36.53,0,0,1-7.94-1.4l-29.67-7.48c-1.5-.52-2.68-3.3-2.38-4.87l4.47-17A1.64,1.64,0,0,1,1343.32,854.43Z" style="fill: #756f59"/>
        <polygon points="1360.88 823.26 1351 840.79 1367.93 842.63 1384.52 851.47 1393.46 852.91 1412.04 861.84 1426.07 861.54 1437.3 857.09 1411.24 857.8 1391.71 847.82 1378.07 840.13 1363.48 831.4 1360.88 823.26" style="fill: #756f59"/>
        <path d="M1458.87,859.7,1491.35,872a7.31,7.31,0,0,0,4.55.23c32-8.73,66.71-24.42,103-44.21-35.09,15.23-68.43,29.41-89.92,36.59l-50-5.39A.23.23,0,0,0,1458.87,859.7Z" style="fill: #756f59"/>
        <path d="M1494.2,901l-.64,13c-2.77,1.48,40.09-13.61,71.3-24.5,34.52-18.5,68-36.51,87.47-47.72a2.53,2.53,0,0,0,1.1-2S1494.29,899.22,1494.2,901Z" style="fill: #756f59"/>
        <path d="M1424,781.34l-54.42,27.34c5.64,10.44,15.91,16.43,32.21,16.61,13.65,8,27.57,15.34,43.16,18.16l40.8,5a21.76,21.76,0,0,0,11.13-2.45q34.75-7.5,54.52-29.34l-29.31,5.56-21.52,9.94-36.31-14.81c-10.35-5.28-13.79-14.35-14.79-24.77Z" style="fill: #b5ac99"/>
        <path d="M1497,742.9c-14.13,4.75-26,9.3-25.66,12.75.62,4.28,4.1,6.83,13.73,5.69l16.13-2.21,19.67-13C1520.36,743.59,1510.31,742.93,1497,742.9Z" style="fill: #d6d4c6"/>
        <path d="M1526.65,751.38c-1.79-2.35-1.57-4.68.34-7l7.19-3.65c2.75-1.14,5.45-1.48,8,.4.17,3.32-.26,4.93-1.24,4.94l-8.29,5.6Z" style="fill: #d6d4c6"/>
        <path d="M1494.2,901l-14.38,7.3-18-.9,24.73,6.24c1.52.75,4.63.74,7,.34" style="fill: #756f59"/>
      </g>
    </g>
    <g id="Warstwa_4" data-name="Warstwa 4">
      <g>
        <path d="M4,376.32c30.58-23,60.45-42.7,87.42-48.57Q144.3,308.27,208,308.33c32.77,43.14,61.75,91.94,87.42,145.69,39.48,22.72,75.75,55.3,110.08,93.89L467,564.1c44.79-7,84.36-8.75,113.32,0L696.85,590,580.3,554.39c-30.89-6.26-67-5.58-106.84,0l-68-25.9c-27-32.11-55.43-60.62-87.42-80.95L246.82,308.33l103.61,74.46L399,392.5c20.73,10.47,39.3,28.09,55,55a310,310,0,0,1,103.6-16.18L671,463.73h87.42l55-3.23,58.27,35.61L968.81,535l64.75-38.85-64.75,29.14-93.89-35.62-55-42.09H677.43L560.87,411.93c-35-.56-69.64,2.33-103.6,12.95-11.46-20.89-31.53-39-58.28-55l35.61-12.95c19.81-5,44.53,1.59,71.23,12.95l64.75-29.14,64.76-25.9C677,317.23,716,326.47,751.89,343.94l25.9-16.19,35.62-42.09L926.72,263,806.93,279.19c-22.45,10.41-38.75,30.23-51.8,55-33-18.07-74.39-27.36-119.79-32.38-48.64,11.47-92.59,31.44-132.75,58.28-16.26-13-40.7-19-68-22.66l-84.17,12.95L240.35,279.19,97.89,295.38,4,340.7Z" style="fill: #6c3e26"/>
        <g>
          <path d="M358.6,403.26c.06,4.58.21,8.84,1.21,10.38,1.28,4.38,3.69,6.66,7,7.25,4.69,1.23,8.47,1.37,10.62-.48a12,12,0,0,0,5.07-6c2.53-5.25,2.77-9.25,0-11.59-2.83-3.5-6.71-6-10.86-8.21l8.21,2.41c5.41.14,8.84-.9,9.9-3.38a11.71,11.71,0,0,0,3.14-5.79c2.33-3.94.75-7.78-2.42-11.59-2.22-2.31-4.38-4.27-6.28-4.83-2.13-.93-4.08-1-5.79,0-2.22.54-3.79,1.41-4.59,2.66a28.22,28.22,0,0,1-7.73,6.27l2.9-4.82c3.66-5.25,3.64-9,1.69-12.08-3.05-4.35-6.47-6.61-10.14-7.48-2.81-.48-5.27-.11-7.24,1.45a12,12,0,0,0-5.56,4.1c-1.88,1.7-2.43,4.59-2.17,8.21.43,2.35,2.3,6,4.83,10.14-4.34-3.75-7.71-7.31-10.14-9.41a11.41,11.41,0,0,0-8.45,1,13.41,13.41,0,0,0-8.21,8.93c-.83,4.11,2.31,14.29,8.45,14.73,2.36.48,7.25.14,13-.48-5.57,2.23-10.72,4.6-11.83,8.21-1.4,2.25-1.14,5.14.24,8.45a11.09,11.09,0,0,0,7,8.45,25.42,25.42,0,0,0,9.18.24,10.62,10.62,0,0,0,6.27-6Z" style="fill: #f46ea0"/>
          <path d="M358.6,383.22l.24-9.66h1.21l-.73,9.66c.56.35,1,.49,1.21,0l2.66-5.31.72.48L361.26,384c-.07,1.67,1,2,2.65,1.69l7.25-3.87.48.73-7.49,4.1c-.2.29-.08.43.24.49l13-2.66v.72l-12.79,3.14,9.65,1.93-.24.73-10.14-1.45c-.84-.06-1.08.51-1,1.45l8.45,6.52-.73.72-7.48-5.79c-.72-.27-1,.05-.73,1l7,10.87-.73.48-7-11.11c-.45.11-.7.37-.48,1l2.17,8.45-.73.24-2.89-9.9c-.73-.6-1.41-.78-1.93.24l-3.14,11.11-1-.48,2.66-9.42c-.05-.46-.19-.74-.73-.24l-6,8.93-1-.72,6-8.69c.21-.7-.05-1-1-.73l-7,5.31-.73-1,8-6c1.17-1.32.35-2.12-1.45-2.65l-8.69,1.69V389.5l8-1.21c.38-.11.42-.26,0-.48l-10.38-2.41v-1l10.62,2.17c1.05,0,1.06-.4.48-1l-5.31-3.38.48-1L354,385.4c1.54.14,2.41-.68,2.66-2.42l-2.66-6,1-.24,2.41,6.52C357.84,383.59,358.25,383.63,358.6,383.22Z" style="fill: #fcfcfc"/>
          <circle cx="359.57" cy="372.6" r="1.45" style="fill: #fcfcfc"/>
          <circle cx="364.03" cy="377.31" r="1.33" style="fill: #fcfcfc"/>
          <circle cx="372.12" cy="381.53" r="1.21" style="fill: #fcfcfc"/>
          <circle cx="378.64" cy="384.43" r="1.21" style="fill: #fcfcfc"/>
          <circle cx="375.26" cy="390.95" r="1.21" style="fill: #fcfcfc"/>
          <circle cx="371.88" cy="398.67" r="1.21" style="fill: #fcfcfc"/>
          <circle cx="354.25" cy="375.98" r="1.21" style="fill: #fcfcfc"/>
          <circle cx="346.77" cy="381.29" r="1.21" style="fill: #fcfcfc"/>
          <circle cx="340.73" cy="384.67" r="1.21" style="fill: #fcfcfc"/>
          <circle cx="343.15" cy="390.47" r="1.21" style="fill: #fcfcfc"/>
          <circle cx="346.04" cy="398.67" r="1.21" style="fill: #fcfcfc"/>
          <circle cx="346.53" cy="398.43" r="1.21" style="fill: #fcfcfc"/>
          <circle cx="349.18" cy="403.5" r="1.21" style="fill: #fcfcfc"/>
          <circle cx="354.25" cy="404.71" r="1.21" style="fill: #fcfcfc"/>
          <circle cx="362.95" cy="403.75" r="1.21" style="fill: #fcfcfc"/>
          <circle cx="369.22" cy="404.71" r="1.21" style="fill: #fcfcfc"/>
        </g>
        <g>
          <path d="M923.15,271.89c0,2.69.13,5.2.71,6.11.76,2.58,2.18,3.92,4.13,4.27,2.76.72,5,.8,6.25-.29a7,7,0,0,0,3-3.55c1.49-3.1,1.63-5.45,0-6.83a20.25,20.25,0,0,0-6.4-4.83l4.84,1.42c3.18.08,5.2-.54,5.83-2a6.88,6.88,0,0,0,1.84-3.41c1.38-2.32.45-4.59-1.42-6.83a10.38,10.38,0,0,0-3.69-2.84,3.6,3.6,0,0,0-3.42,0,4.26,4.26,0,0,0-2.7,1.56,16.76,16.76,0,0,1-4.55,3.7l1.71-2.85c2.15-3.08,2.14-5.32,1-7.1a10.06,10.06,0,0,0-6-4.41,5.17,5.17,0,0,0-4.27.85,7.07,7.07,0,0,0-3.27,2.42c-1.1,1-1.43,2.7-1.28,4.83a22,22,0,0,0,2.85,6c-2.56-2.21-4.54-4.3-6-5.54a6.68,6.68,0,0,0-5,.57,7.88,7.88,0,0,0-4.83,5.26c-.49,2.42,1.36,8.41,5,8.67a33.52,33.52,0,0,0,7.68-.28c-3.28,1.31-6.31,2.71-7,4.83-.82,1.33-.67,3,.15,5a6.54,6.54,0,0,0,4.12,5,15.24,15.24,0,0,0,5.4.14,6.27,6.27,0,0,0,3.7-3.56Z" style="fill: #f46ea0"/>
          <path d="M923.15,260.08l.15-5.68H924l-.43,5.68c.33.21.6.29.71,0l1.56-3.12.43.28-1.56,3.27c0,1,.6,1.18,1.56,1l4.27-2.28.28.43-4.41,2.42c-.11.16,0,.25.15.28l7.67-1.56v.42l-7.53,1.85,5.69,1.14-.15.42-6-.85c-.49,0-.64.3-.57.85l5,3.84-.43.43-4.41-3.41q-.63-.24-.42.57l4.12,6.4-.42.28L925,266.2c-.26.06-.41.21-.28.57l1.28,5-.43.15-1.71-5.83c-.43-.36-.82-.47-1.13.14l-1.85,6.54-.57-.28,1.56-5.55c0-.27-.1-.44-.42-.14L917.89,272l-.57-.43,3.56-5.12c.12-.41,0-.58-.57-.42l-4.12,3.12-.43-.56,4.69-3.56c.69-.78.2-1.25-.85-1.56l-5.12,1v-.71l4.69-.71c.22-.06.25-.16,0-.28l-6.11-1.43v-.56l6.25,1.28c.62,0,.63-.24.29-.57l-3.13-2,.28-.57,3.7,2.41c.91.09,1.42-.39,1.57-1.42l-1.57-3.55.57-.14,1.42,3.83C922.71,260.3,923,260.33,923.15,260.08Z" style="fill: #fcfcfc"/>
          <circle cx="923.72" cy="253.83" r="0.85" style="fill: #fcfcfc"/>
          <circle cx="926.35" cy="256.6" r="0.78" style="fill: #fcfcfc"/>
          <circle cx="931.12" cy="259.09" r="0.71" style="fill: #fcfcfc"/>
          <circle cx="934.95" cy="260.8" r="0.71" style="fill: #fcfcfc"/>
          <circle cx="932.96" cy="264.63" r="0.71" style="fill: #fcfcfc"/>
          <circle cx="930.97" cy="269.18" r="0.71" style="fill: #fcfcfc"/>
          <circle cx="920.59" cy="255.82" r="0.71" style="fill: #fcfcfc"/>
          <circle cx="916.19" cy="258.95" r="0.71" style="fill: #fcfcfc"/>
          <circle cx="912.63" cy="260.94" r="0.71" style="fill: #fcfcfc"/>
          <circle cx="914.05" cy="264.35" r="0.71" style="fill: #fcfcfc"/>
          <circle cx="915.76" cy="269.18" r="0.71" style="fill: #fcfcfc"/>
          <circle cx="916.04" cy="269.04" r="0.71" style="fill: #fcfcfc"/>
          <circle cx="917.61" cy="272.03" r="0.71" style="fill: #fcfcfc"/>
          <circle cx="920.59" cy="272.74" r="0.71" style="fill: #fcfcfc"/>
          <circle cx="925.71" cy="272.17" r="0.71" style="fill: #fcfcfc"/>
          <circle cx="929.41" cy="272.74" r="0.71" style="fill: #fcfcfc"/>
        </g>
        <g>
          <path d="M1023.63,513.94c0,3.67.17,7.09,1,8.32,1,3.51,3,5.34,5.62,5.81,3.75,1,6.79,1.1,8.51-.39a9.58,9.58,0,0,0,4.07-4.83c2-4.22,2.21-7.42,0-9.29a27.57,27.57,0,0,0-8.71-6.58l6.58,1.93c4.33.11,7.08-.73,7.93-2.71a9.42,9.42,0,0,0,2.52-4.64c1.87-3.16.6-6.24-1.94-9.29-1.78-1.85-3.51-3.42-5-3.87a4.85,4.85,0,0,0-4.64,0,5.74,5.74,0,0,0-3.68,2.13,23,23,0,0,1-6.19,5l2.32-3.87c2.93-4.21,2.91-7.25,1.35-9.68-2.44-3.49-5.18-5.3-8.13-6a7.06,7.06,0,0,0-5.8,1.16,9.61,9.61,0,0,0-4.45,3.29c-1.51,1.37-2,3.68-1.75,6.58.35,1.88,1.85,4.78,3.88,8.13-3.48-3-6.18-5.86-8.13-7.55a9.17,9.17,0,0,0-6.78.78,10.72,10.72,0,0,0-6.58,7.16c-.66,3.29,1.86,11.44,6.78,11.8,1.89.38,5.81.12,10.45-.38-4.47,1.79-8.59,3.68-9.49,6.58-1.11,1.8-.91,4.11.2,6.77a8.88,8.88,0,0,0,5.61,6.77,20.39,20.39,0,0,0,7.35.2,8.56,8.56,0,0,0,5-4.84C1022.06,520.22,1022.81,517.21,1023.63,513.94Z" style="fill: #f46ea0"/>
          <path d="M1023.63,497.88l.19-7.74h1l-.58,7.74c.44.28.82.39,1,0l2.13-4.26.58.39-2.13,4.45c0,1.35.83,1.6,2.13,1.36l5.81-3.1.39.58-6,3.29c-.16.23-.07.34.19.39l10.45-2.13v.58l-10.26,2.51,7.75,1.55-.2.58-8.13-1.16c-.67-.05-.86.41-.77,1.16l6.77,5.23-.58.58-6-4.65c-.57-.21-.76,0-.58.78l5.61,8.71-.58.38-5.61-8.9c-.36.09-.56.29-.39.78l1.75,6.77-.58.19-2.33-7.93c-.58-.49-1.12-.63-1.55.19l-2.51,8.9-.78-.38,2.13-7.55c0-.37-.14-.59-.58-.19l-4.84,7.16-.77-.58,4.84-7c.17-.56,0-.8-.78-.58l-5.61,4.26-.58-.78,6.39-4.84c.93-1.06.28-1.69-1.16-2.13l-7,1.36v-1l6.39-1c.3-.09.33-.21,0-.38l-8.33-1.94v-.77l8.52,1.74c.84,0,.85-.32.39-.77l-4.26-2.71.39-.78,5,3.29c1.23.12,1.93-.54,2.13-1.93l-2.13-4.84.77-.2,1.94,5.23C1023,498.18,1023.35,498.21,1023.63,497.88Z" style="fill: #fcfcfc"/>
          <circle cx="1024.4" cy="489.36" r="1.16" style="fill: #fcfcfc"/>
          <circle cx="1027.98" cy="493.14" r="1.06" style="fill: #fcfcfc"/>
          <circle cx="1034.46" cy="496.53" r="0.97" style="fill: #fcfcfc"/>
          <circle cx="1039.69" cy="498.85" r="0.97" style="fill: #fcfcfc"/>
          <circle cx="1036.98" cy="504.07" r="0.97" style="fill: #fcfcfc"/>
          <circle cx="1034.27" cy="510.27" r="0.97" style="fill: #fcfcfc"/>
          <circle cx="1020.14" cy="492.07" r="0.97" style="fill: #fcfcfc"/>
          <circle cx="1014.14" cy="496.33" r="0.97" style="fill: #fcfcfc"/>
          <circle cx="1009.3" cy="499.04" r="0.97" style="fill: #fcfcfc"/>
          <circle cx="1011.24" cy="503.69" r="0.97" style="fill: #fcfcfc"/>
          <circle cx="1013.56" cy="510.27" r="0.97" style="fill: #fcfcfc"/>
          <circle cx="1013.95" cy="510.07" r="0.97" style="fill: #fcfcfc"/>
          <circle cx="1016.08" cy="514.14" r="0.97" style="fill: #fcfcfc"/>
          <circle cx="1020.14" cy="515.1" r="0.97" style="fill: #fcfcfc"/>
          <circle cx="1027.11" cy="514.33" r="0.97" style="fill: #fcfcfc"/>
          <circle cx="1032.14" cy="515.1" r="0.97" style="fill: #fcfcfc"/>
        </g>
        <g>
          <path d="M689.17,596.52c0,2,.1,4,.54,4.64.57,2,1.65,3,3.13,3.24,2.1.55,3.79.61,4.75-.22a5.29,5.29,0,0,0,2.27-2.7c1.13-2.35,1.24-4.14,0-5.18a15.26,15.26,0,0,0-4.86-3.67l3.67,1.08c2.42.06,4-.41,4.43-1.51a5.25,5.25,0,0,0,1.4-2.59c1-1.76.34-3.48-1.08-5.19a7.93,7.93,0,0,0-2.8-2.16,2.77,2.77,0,0,0-2.6,0,3.27,3.27,0,0,0-2,1.19,12.67,12.67,0,0,1-3.45,2.81l1.29-2.16c1.64-2.34,1.63-4,.76-5.4a7.63,7.63,0,0,0-4.53-3.34,3.94,3.94,0,0,0-3.24.64,5.45,5.45,0,0,0-2.49,1.84c-.84.76-1.09,2-1,3.67A16.54,16.54,0,0,0,685.5,586c-1.94-1.67-3.45-3.27-4.53-4.21a5.14,5.14,0,0,0-3.78.43,6,6,0,0,0-3.67,4c-.37,1.83,1,6.38,3.78,6.58a24.6,24.6,0,0,0,5.83-.21c-2.49,1-4.8,2-5.29,3.67-.63,1-.51,2.3.1,3.78a5,5,0,0,0,3.13,3.78,11.31,11.31,0,0,0,4.11.1,4.73,4.73,0,0,0,2.8-2.69C688.3,600,688.72,598.34,689.17,596.52Z" style="fill: #f46ea0"/>
          <path d="M689.17,587.55l.11-4.31h.54l-.32,4.31c.24.16.45.22.54,0l1.18-2.37.33.22-1.19,2.48c0,.75.46.89,1.19.75l3.24-1.72.21.32-3.35,1.84c-.08.12,0,.19.11.21l5.83-1.19v.33l-5.72,1.4,4.32.87-.11.32-4.53-.65c-.38,0-.49.23-.44.65l3.78,2.91-.32.33-3.35-2.59c-.32-.12-.42,0-.32.43L694,597l-.32.21-3.14-5c-.2,0-.31.16-.21.43l1,3.78-.32.11-1.3-4.43c-.32-.27-.63-.35-.86.11l-1.41,5L687,597l1.19-4.21c0-.21-.08-.33-.32-.11l-2.7,4-.43-.32,2.69-3.89c.1-.31,0-.44-.43-.32l-3.13,2.37-.32-.43,3.56-2.7c.52-.59.15-.94-.65-1.18l-3.88.75v-.54l3.56-.54c.17-.05.19-.12,0-.21l-4.64-1.08v-.44l4.75,1c.46,0,.47-.18.21-.44l-2.37-1.51.21-.43,2.81,1.84c.69.06,1.08-.31,1.19-1.08l-1.19-2.7.43-.11,1.08,2.91C688.83,587.72,689,587.74,689.17,587.55Z" style="fill: #fcfcfc"/>
          <circle cx="689.6" cy="582.8" r="0.65" style="fill: #fcfcfc"/>
          <circle cx="691.6" cy="584.91" r="0.59" style="fill: #fcfcfc"/>
          <circle cx="695.22" cy="586.8" r="0.54" style="fill: #fcfcfc"/>
          <circle cx="698.13" cy="588.09" r="0.54" style="fill: #fcfcfc"/>
          <circle cx="696.62" cy="591.01" r="0.54" style="fill: #fcfcfc"/>
          <circle cx="695.11" cy="594.46" r="0.54" style="fill: #fcfcfc"/>
          <circle cx="687.23" cy="584.32" r="0.54" style="fill: #fcfcfc"/>
          <circle cx="683.88" cy="586.69" r="0.54" style="fill: #fcfcfc"/>
          <circle cx="681.18" cy="588.2" r="0.54" style="fill: #fcfcfc"/>
          <circle cx="682.26" cy="590.79" r="0.54" style="fill: #fcfcfc"/>
          <circle cx="683.56" cy="594.46" r="0.54" style="fill: #fcfcfc"/>
          <circle cx="683.77" cy="594.36" r="0.54" style="fill: #fcfcfc"/>
          <circle cx="684.96" cy="596.62" r="0.54" style="fill: #fcfcfc"/>
          <circle cx="687.23" cy="597.16" r="0.54" style="fill: #fcfcfc"/>
          <circle cx="691.11" cy="596.73" r="0.54" style="fill: #fcfcfc"/>
          <circle cx="693.92" cy="597.16" r="0.54" style="fill: #fcfcfc"/>
        </g>
        <g>
          <path d="M820.6,457.26c.06,4.58.21,8.84,1.21,10.38,1.28,4.38,3.69,6.66,7,7.25,4.69,1.23,8.47,1.37,10.62-.48a12,12,0,0,0,5.07-6c2.53-5.25,2.77-9.25,0-11.59-2.83-3.5-6.71-6-10.86-8.21l8.21,2.41c5.41.14,8.84-.9,9.9-3.38a11.71,11.71,0,0,0,3.14-5.79c2.33-3.94.75-7.78-2.42-11.59-2.22-2.31-4.38-4.27-6.28-4.83-2.13-.93-4.08-1-5.79,0-2.22.54-3.79,1.41-4.59,2.66a28.22,28.22,0,0,1-7.73,6.27l2.9-4.82c3.66-5.25,3.64-9,1.69-12.08-3-4.35-6.47-6.61-10.14-7.48-2.81-.48-5.27-.11-7.24,1.45a12,12,0,0,0-5.56,4.1c-1.88,1.7-2.43,4.59-2.17,8.21.43,2.35,2.3,6,4.83,10.14-4.34-3.75-7.71-7.31-10.14-9.41a11.41,11.41,0,0,0-8.45,1,13.41,13.41,0,0,0-8.21,8.93c-.83,4.11,2.31,14.29,8.45,14.73,2.36.48,7.25.14,13-.48-5.57,2.23-10.72,4.6-11.83,8.21-1.4,2.25-1.14,5.14.24,8.45a11.09,11.09,0,0,0,7,8.45,25.42,25.42,0,0,0,9.18.24,10.62,10.62,0,0,0,6.27-6Z" style="fill: #f46ea0"/>
          <path d="M820.6,437.22l.24-9.66h1.21l-.73,9.66c.56.35,1,.49,1.21,0l2.66-5.31.72.48L823.26,438c-.07,1.67,1,2,2.65,1.69l7.25-3.87.48.73-7.49,4.1c-.2.29-.08.43.24.49l13-2.66v.72l-12.79,3.14,9.65,1.93-.24.73-10.14-1.45c-.84-.06-1.08.51-1,1.45l8.45,6.52-.73.72-7.48-5.79c-.72-.27-1,.05-.73,1l7,10.87-.73.48-7-11.11c-.45.11-.7.37-.48,1l2.17,8.45-.73.24-2.89-9.9c-.73-.6-1.41-.78-1.93.24l-3.14,11.11-1-.48,2.66-9.42c0-.46-.19-.74-.73-.24l-6,8.93-1-.72,6-8.69c.21-.7,0-1-1-.73l-7,5.31-.73-1,8-6c1.17-1.32.35-2.12-1.45-2.65l-8.69,1.69V443.5l8-1.21c.38-.11.42-.26,0-.48l-10.38-2.41v-1l10.62,2.17c1,0,1.06-.4.48-1l-5.31-3.38.48-1L816,439.4c1.54.14,2.41-.68,2.66-2.42l-2.66-6,1-.24,2.41,6.52C819.84,437.59,820.25,437.63,820.6,437.22Z" style="fill: #fcfcfc"/>
          <circle cx="821.57" cy="426.6" r="1.45" style="fill: #fcfcfc"/>
          <circle cx="826.03" cy="431.31" r="1.33" style="fill: #fcfcfc"/>
          <circle cx="834.12" cy="435.53" r="1.21" style="fill: #fcfcfc"/>
          <circle cx="840.64" cy="438.43" r="1.21" style="fill: #fcfcfc"/>
          <circle cx="837.26" cy="444.95" r="1.21" style="fill: #fcfcfc"/>
          <circle cx="833.88" cy="452.67" r="1.21" style="fill: #fcfcfc"/>
          <circle cx="816.25" cy="429.98" r="1.21" style="fill: #fcfcfc"/>
          <circle cx="808.77" cy="435.29" r="1.21" style="fill: #fcfcfc"/>
          <circle cx="802.73" cy="438.67" r="1.21" style="fill: #fcfcfc"/>
          <circle cx="805.15" cy="444.47" r="1.21" style="fill: #fcfcfc"/>
          <circle cx="808.04" cy="452.67" r="1.21" style="fill: #fcfcfc"/>
          <circle cx="808.53" cy="452.43" r="1.21" style="fill: #fcfcfc"/>
          <circle cx="811.18" cy="457.5" r="1.21" style="fill: #fcfcfc"/>
          <circle cx="816.25" cy="458.71" r="1.21" style="fill: #fcfcfc"/>
          <circle cx="824.95" cy="457.75" r="1.21" style="fill: #fcfcfc"/>
          <circle cx="831.22" cy="458.71" r="1.21" style="fill: #fcfcfc"/>
        </g>
        <g>
          <path d="M457.48,575.55c0,3.51.17,6.79.93,8,1,3.36,2.84,5.12,5.39,5.57,3.6.95,6.51,1,8.17-.37a9.19,9.19,0,0,0,3.9-4.64c1.94-4,2.13-7.12,0-8.92a26.55,26.55,0,0,0-8.36-6.31l6.31,1.86c4.16.1,6.8-.7,7.62-2.6a8.94,8.94,0,0,0,2.41-4.46c1.8-3,.58-6-1.86-8.91-1.7-1.78-3.36-3.28-4.82-3.72a4.72,4.72,0,0,0-4.46,0,5.56,5.56,0,0,0-3.53,2.05,21.82,21.82,0,0,1-5.94,4.83l2.23-3.72c2.81-4,2.79-7,1.3-9.28-2.35-3.35-5-5.09-7.8-5.76a6.8,6.8,0,0,0-5.57,1.11,9.25,9.25,0,0,0-4.27,3.16c-1.45,1.31-1.88,3.53-1.67,6.31.33,1.81,1.77,4.59,3.71,7.8-3.34-2.88-5.93-5.62-7.8-7.24a8.78,8.78,0,0,0-6.5.74,10.32,10.32,0,0,0-6.31,6.88c-.64,3.15,1.78,11,6.5,11.32,1.81.37,5.57.11,10-.37-4.29,1.72-8.25,3.54-9.1,6.31-1.07,1.74-.88,4,.18,6.5a8.54,8.54,0,0,0,5.39,6.5,19.46,19.46,0,0,0,7.05.19,8.18,8.18,0,0,0,4.83-4.64C456,581.57,456.7,578.68,457.48,575.55Z" style="fill: #f46ea0"/>
          <path d="M457.48,560.13l.19-7.42h.93l-.56,7.42c.43.27.79.38.93,0l2-4.08.56.37-2,4.27c0,1.29.79,1.54,2,1.3l5.57-3,.37.56-5.76,3.15c-.15.22-.06.33.19.37l10-2v.56L462.13,564l7.42,1.49-.18.56-7.8-1.12c-.64,0-.83.39-.74,1.12l6.5,5-.56.56L461,567.19c-.55-.21-.73,0-.56.74l5.39,8.36-.56.37-5.38-8.54c-.35.08-.54.28-.37.74l1.67,6.5-.56.19-2.23-7.62c-.56-.46-1.08-.6-1.48.19l-2.42,8.54-.74-.37,2-7.24c0-.36-.14-.57-.55-.19l-4.65,6.87-.74-.56,4.64-6.68c.17-.54,0-.77-.74-.56L448.39,572l-.56-.75,6.13-4.64c.89-1,.26-1.63-1.12-2l-6.68,1.3V565l6.12-.93c.29-.08.33-.2,0-.37l-8-1.86v-.74l8.17,1.67c.8,0,.82-.31.37-.74l-4.08-2.6.37-.74L454,561.8c1.18.12,1.85-.51,2-1.85l-2-4.64.74-.19,1.86,5C456.9,560.42,457.22,560.45,457.48,560.13Z" style="fill: #fcfcfc"/>
          <circle cx="458.23" cy="551.96" r="1.11" style="fill: #fcfcfc"/>
          <circle cx="461.66" cy="555.58" r="1.02" style="fill: #fcfcfc"/>
          <circle cx="467.88" cy="558.83" r="0.93" style="fill: #fcfcfc"/>
          <circle cx="472.9" cy="561.06" r="0.93" style="fill: #fcfcfc"/>
          <circle cx="470.3" cy="566.08" r="0.93" style="fill: #fcfcfc"/>
          <circle cx="467.7" cy="572.02" r="0.93" style="fill: #fcfcfc"/>
          <circle cx="454.14" cy="554.56" r="0.93" style="fill: #fcfcfc"/>
          <circle cx="448.39" cy="558.65" r="0.93" style="fill: #fcfcfc"/>
          <circle cx="443.74" cy="561.25" r="0.93" style="fill: #fcfcfc"/>
          <circle cx="445.6" cy="565.7" r="0.93" style="fill: #fcfcfc"/>
          <circle cx="447.83" cy="572.02" r="0.93" style="fill: #fcfcfc"/>
          <circle cx="448.2" cy="571.83" r="0.93" style="fill: #fcfcfc"/>
          <circle cx="450.24" cy="575.73" r="0.93" style="fill: #fcfcfc"/>
          <circle cx="454.14" cy="576.66" r="0.93" style="fill: #fcfcfc"/>
          <circle cx="460.83" cy="575.92" r="0.93" style="fill: #fcfcfc"/>
          <circle cx="465.65" cy="576.66" r="0.93" style="fill: #fcfcfc"/>
        </g>
        <g>
          <path d="M759.12,351.85c0,3.86.18,7.46,1,8.77,1.08,3.69,3.11,5.61,5.91,6.11,4,1,7.15,1.16,9-.41a10.12,10.12,0,0,0,4.28-5.09c2.13-4.44,2.33-7.81,0-9.79a29,29,0,0,0-9.17-6.92l6.92,2c4.57.12,7.47-.76,8.36-2.85a9.85,9.85,0,0,0,2.65-4.89c2-3.32.63-6.57-2-9.78-1.87-1.95-3.69-3.61-5.3-4.08a5.16,5.16,0,0,0-4.89,0,6.12,6.12,0,0,0-3.87,2.24,24,24,0,0,1-6.52,5.3l2.44-4.07c3.09-4.43,3.07-7.63,1.43-10.19-2.57-3.68-5.46-5.59-8.56-6.32a7.42,7.42,0,0,0-6.11,1.22,10.18,10.18,0,0,0-4.69,3.46c-1.59,1.44-2.06,3.88-1.84,6.93.37,2,1.95,5,4.08,8.56-3.66-3.16-6.51-6.17-8.56-7.94a9.63,9.63,0,0,0-7.13.81,11.3,11.3,0,0,0-6.93,7.54c-.7,3.47,1.95,12.06,7.13,12.43,2,.4,6.12.12,11-.4-4.7,1.88-9.05,3.88-10,6.92-1.18,1.91-1,4.34.2,7.14a9.39,9.39,0,0,0,5.92,7.13,21.37,21.37,0,0,0,7.74.2,9,9,0,0,0,5.3-5.09Z" style="fill: #f46ea0"/>
          <path d="M759.12,334.94l.2-8.16h1l-.61,8.16c.47.29.86.41,1,0l2.24-4.49.61.41-2.24,4.69c-.05,1.41.87,1.68,2.24,1.42l6.12-3.26.41.62-6.32,3.46c-.17.24-.07.36.2.41L775,336v.61l-10.8,2.65,8.15,1.63-.21.61-8.56-1.22c-.7-.05-.91.42-.81,1.22l7.13,5.5-.61.61L763,342.68c-.6-.23-.8.05-.61.82l5.91,9.17-.61.41-5.91-9.38c-.38.09-.59.31-.41.82l1.84,7.13-.62.2-2.44-8.35c-.62-.51-1.19-.67-1.63.2l-2.65,9.38-.82-.41,2.25-7.95c0-.39-.16-.63-.62-.2l-5.09,7.54-.82-.62,5.1-7.33c.18-.59,0-.84-.82-.61L749.13,348l-.61-.82,6.73-5.09c1-1.12.29-1.79-1.22-2.24l-7.34,1.42v-1l6.72-1c.32-.1.36-.23,0-.41l-8.76-2V336l9,1.83c.88,0,.89-.34.41-.82l-4.49-2.85.41-.81,5.3,3.46c1.29.13,2-.57,2.24-2l-2.24-5.09.81-.21,2,5.51C758.48,335.25,758.83,335.28,759.12,334.94Z" style="fill: #fcfcfc"/>
          <circle cx="759.94" cy="325.97" r="1.22" style="fill: #fcfcfc"/>
          <circle cx="763.71" cy="329.94" r="1.12" style="fill: #fcfcfc"/>
          <circle cx="770.53" cy="333.51" r="1.02" style="fill: #fcfcfc"/>
          <circle cx="776.04" cy="335.96" r="1.02" style="fill: #fcfcfc"/>
          <circle cx="773.18" cy="341.46" r="1.02" style="fill: #fcfcfc"/>
          <circle cx="770.33" cy="347.98" r="1.02" style="fill: #fcfcfc"/>
          <circle cx="755.45" cy="328.82" r="1.02" style="fill: #fcfcfc"/>
          <circle cx="749.13" cy="333.31" r="1.02" style="fill: #fcfcfc"/>
          <circle cx="744.04" cy="336.16" r="1.02" style="fill: #fcfcfc"/>
          <circle cx="746.08" cy="341.05" r="1.02" style="fill: #fcfcfc"/>
          <circle cx="748.52" cy="347.98" r="1.02" style="fill: #fcfcfc"/>
          <circle cx="748.93" cy="347.78" r="1.02" style="fill: #fcfcfc"/>
          <circle cx="751.17" cy="352.06" r="1.02" style="fill: #fcfcfc"/>
          <circle cx="755.45" cy="353.08" r="1.02" style="fill: #fcfcfc"/>
          <circle cx="762.79" cy="352.26" r="1.02" style="fill: #fcfcfc"/>
          <circle cx="768.09" cy="353.08" r="1.02" style="fill: #fcfcfc"/>
        </g>
        <g>
          <path d="M506.7,382.07c0,2.9.13,5.6.76,6.57.81,2.77,2.33,4.21,4.43,4.59,3,.78,5.36.86,6.72-.31a7.52,7.52,0,0,0,3.21-3.82c1.6-3.32,1.76-5.85,0-7.33a21.79,21.79,0,0,0-6.87-5.2l5.19,1.53c3.43.09,5.6-.58,6.27-2.14a7.3,7.3,0,0,0,2-3.67c1.48-2.49.48-4.92-1.52-7.33-1.41-1.46-2.77-2.7-4-3.06a3.88,3.88,0,0,0-3.66,0,4.62,4.62,0,0,0-2.91,1.68,17.91,17.91,0,0,1-4.89,4l1.84-3.06c2.31-3.32,2.3-5.72,1.07-7.64a10.9,10.9,0,0,0-6.42-4.74,5.6,5.6,0,0,0-4.58.92,7.57,7.57,0,0,0-3.52,2.6c-1.19,1.08-1.54,2.9-1.37,5.19a23.38,23.38,0,0,0,3.05,6.42c-2.74-2.37-4.88-4.63-6.42-6a7.26,7.26,0,0,0-5.34.61,8.49,8.49,0,0,0-5.2,5.66c-.52,2.59,1.47,9,5.35,9.32,1.49.3,4.59.09,8.25-.31-3.52,1.42-6.78,2.91-7.49,5.2-.88,1.42-.72,3.25.16,5.34a7,7,0,0,0,4.43,5.35,16,16,0,0,0,5.8.15,6.69,6.69,0,0,0,4-3.82C505.46,387,506.05,384.65,506.7,382.07Z" style="fill: #f46ea0"/>
          <path d="M506.7,369.39l.15-6.11h.76l-.45,6.11c.35.22.64.31.76,0L509.6,366l.46.3-1.68,3.52c0,1.06.65,1.26,1.68,1.07l4.58-2.45.31.46-4.74,2.6c-.12.18,0,.27.15.3l8.25-1.68v.46l-8.09,2,6.11,1.22-.15.46-6.42-.92c-.53,0-.69.32-.61.92l5.34,4.12-.45.46-4.74-3.66c-.45-.18-.6,0-.46.61l4.43,6.87-.46.31-4.43-7c-.28.07-.44.23-.3.61l1.37,5.35-.46.15-1.83-6.26c-.46-.38-.89-.5-1.22.15l-2,7-.61-.31,1.68-6c0-.29-.11-.47-.46-.15L501,382.22l-.61-.45,3.82-5.5c.14-.45,0-.63-.61-.46l-4.43,3.36-.46-.61,5-3.82c.74-.84.22-1.34-.91-1.68l-5.5,1.07v-.77l5-.76c.24-.07.26-.17,0-.31l-6.57-1.52v-.62l6.72,1.38c.66,0,.67-.25.31-.61l-3.36-2.14.3-.61,4,2.6c1,.09,1.53-.43,1.68-1.53l-1.68-3.82.61-.16,1.53,4.13C506.22,369.62,506.48,369.65,506.7,369.39Z" style="fill: #fcfcfc"/>
          <circle cx="507.31" cy="362.67" r="0.92" style="fill: #fcfcfc"/>
          <circle cx="510.13" cy="365.65" r="0.84" style="fill: #fcfcfc"/>
          <circle cx="515.25" cy="368.32" r="0.76" style="fill: #fcfcfc"/>
          <circle cx="519.38" cy="370.15" r="0.76" style="fill: #fcfcfc"/>
          <circle cx="517.24" cy="374.28" r="0.76" style="fill: #fcfcfc"/>
          <circle cx="515.1" cy="379.17" r="0.76" style="fill: #fcfcfc"/>
          <circle cx="503.95" cy="364.81" r="0.76" style="fill: #fcfcfc"/>
          <circle cx="499.21" cy="368.17" r="0.76" style="fill: #fcfcfc"/>
          <circle cx="495.39" cy="370.31" r="0.76" style="fill: #fcfcfc"/>
          <circle cx="496.92" cy="373.97" r="0.76" style="fill: #fcfcfc"/>
          <circle cx="498.75" cy="379.17" r="0.76" style="fill: #fcfcfc"/>
          <circle cx="499.06" cy="379.02" r="0.76" style="fill: #fcfcfc"/>
          <circle cx="500.74" cy="382.22" r="0.76" style="fill: #fcfcfc"/>
          <circle cx="503.95" cy="382.99" r="0.76" style="fill: #fcfcfc"/>
          <circle cx="509.45" cy="382.38" r="0.76" style="fill: #fcfcfc"/>
          <circle cx="513.42" cy="382.99" r="0.76" style="fill: #fcfcfc"/>
        </g>
        <g>
          <path d="M634.38,327.88c0,2.2.1,4.26.58,5,.62,2.1,1.77,3.2,3.37,3.49,2.26.59,4.08.65,5.12-.24a5.8,5.8,0,0,0,2.44-2.9c1.21-2.53,1.33-4.46,0-5.58a16.83,16.83,0,0,0-5.23-4l4,1.17c2.6.06,4.25-.44,4.76-1.63a5.56,5.56,0,0,0,1.51-2.79c1.13-1.9.37-3.75-1.16-5.58a8.44,8.44,0,0,0-3-2.33,3,3,0,0,0-2.79,0,3.47,3.47,0,0,0-2.21,1.28,13.67,13.67,0,0,1-3.72,3l1.4-2.33c1.76-2.52,1.75-4.35.81-5.81a8.25,8.25,0,0,0-4.88-3.61,4.25,4.25,0,0,0-3.49.7,5.71,5.71,0,0,0-2.67,2c-.91.82-1.18,2.21-1,4a17.89,17.89,0,0,0,2.33,4.88c-2.09-1.8-3.72-3.52-4.89-4.53a5.51,5.51,0,0,0-4.07.46,6.48,6.48,0,0,0-4,4.31c-.4,2,1.12,6.87,4.07,7.09a27.78,27.78,0,0,0,6.28-.24c-2.68,1.08-5.16,2.22-5.7,4-.67,1.08-.55,2.47.12,4.07a5.31,5.31,0,0,0,3.37,4.06,12,12,0,0,0,4.42.12,5.12,5.12,0,0,0,3-2.91C633.44,331.65,633.89,329.84,634.38,327.88Z" style="fill: #f46ea0"/>
          <path d="M634.38,318.23l.11-4.65h.59l-.35,4.65c.27.17.49.24.58,0l1.28-2.56.35.24-1.28,2.67c0,.81.49,1,1.28.81l3.48-1.86.24.35-3.61,2c-.09.14,0,.21.12.23l6.28-1.28v.35l-6.17,1.51,4.65.93-.11.35-4.88-.7c-.41,0-.53.25-.47.7l4.07,3.14-.35.35-3.6-2.79c-.35-.13-.46,0-.35.46l3.37,5.23-.35.24-3.37-5.35c-.22,0-.34.17-.23.46l1,4.07-.35.12L635,323.11c-.35-.29-.68-.38-.93.12l-1.51,5.35-.47-.24,1.28-4.53c0-.22-.09-.36-.35-.12l-2.9,4.31-.47-.35,2.91-4.19c.1-.34,0-.48-.47-.35l-3.37,2.56-.35-.46,3.84-2.91c.56-.64.17-1-.7-1.28l-4.18.81v-.58l3.83-.58c.18-.05.2-.13,0-.23l-5-1.16v-.47l5.12,1.05c.5,0,.51-.2.23-.47l-2.56-1.62.24-.47,3,2c.74.07,1.16-.33,1.28-1.17l-1.28-2.9.46-.12,1.17,3.14C634,318.41,634.21,318.43,634.38,318.23Z" style="fill: #fcfcfc"/>
          <circle cx="634.84" cy="313.12" r="0.7" style="fill: #fcfcfc"/>
          <circle cx="636.99" cy="315.38" r="0.64" style="fill: #fcfcfc"/>
          <circle cx="640.89" cy="317.42" r="0.58" style="fill: #fcfcfc"/>
          <circle cx="644.03" cy="318.81" r="0.58" style="fill: #fcfcfc"/>
          <circle cx="642.4" cy="321.95" r="0.58" style="fill: #fcfcfc"/>
          <circle cx="640.77" cy="325.67" r="0.58" style="fill: #fcfcfc"/>
          <circle cx="632.29" cy="314.74" r="0.58" style="fill: #fcfcfc"/>
          <circle cx="628.68" cy="317.3" r="0.58" style="fill: #fcfcfc"/>
          <circle cx="625.78" cy="318.93" r="0.58" style="fill: #fcfcfc"/>
          <circle cx="626.94" cy="321.72" r="0.58" style="fill: #fcfcfc"/>
          <circle cx="628.33" cy="325.67" r="0.58" style="fill: #fcfcfc"/>
          <circle cx="628.57" cy="325.55" r="0.58" style="fill: #fcfcfc"/>
          <circle cx="629.84" cy="328" r="0.58" style="fill: #fcfcfc"/>
          <circle cx="632.29" cy="328.58" r="0.58" style="fill: #fcfcfc"/>
          <circle cx="636.47" cy="328.11" r="0.58" style="fill: #fcfcfc"/>
          <circle cx="639.49" cy="328.58" r="0.58" style="fill: #fcfcfc"/>
        </g>
        <g>
          <path d="M602.6,424.26c.06,4.58.21,8.84,1.21,10.38,1.28,4.38,3.69,6.66,7,7.25,4.69,1.23,8.47,1.37,10.62-.48a12,12,0,0,0,5.07-6c2.53-5.25,2.77-9.25,0-11.59-2.83-3.5-6.71-6-10.86-8.21l8.21,2.41c5.41.14,8.84-.9,9.9-3.38a11.71,11.71,0,0,0,3.14-5.79c2.33-3.94.75-7.78-2.42-11.59-2.22-2.31-4.38-4.27-6.28-4.83-2.13-.93-4.08-1-5.79,0-2.22.54-3.79,1.41-4.59,2.66a28.22,28.22,0,0,1-7.73,6.27l2.9-4.82c3.66-5.25,3.64-9,1.69-12.08-3-4.35-6.47-6.61-10.14-7.48-2.81-.48-5.27-.11-7.24,1.45a12,12,0,0,0-5.56,4.1c-1.88,1.7-2.43,4.59-2.17,8.21.43,2.35,2.3,6,4.83,10.14-4.34-3.75-7.71-7.31-10.14-9.41a11.41,11.41,0,0,0-8.45,1,13.41,13.41,0,0,0-8.21,8.93c-.83,4.11,2.31,14.29,8.45,14.73,2.36.48,7.25.14,13-.48-5.57,2.23-10.72,4.6-11.83,8.21-1.4,2.25-1.14,5.14.24,8.45a11.09,11.09,0,0,0,7,8.45,25.42,25.42,0,0,0,9.18.24,10.62,10.62,0,0,0,6.27-6Z" style="fill: #f46ea0"/>
          <path d="M602.6,404.22l.24-9.66h1.21l-.73,9.66c.56.35,1,.49,1.21,0l2.66-5.31.72.48L605.26,405c-.07,1.67,1,2,2.65,1.69l7.25-3.87.48.73-7.49,4.1c-.2.29-.08.43.24.49l13-2.66v.72l-12.79,3.14,9.65,1.93-.24.73-10.14-1.45c-.84-.06-1.08.51-1,1.45l8.45,6.52-.73.72-7.48-5.79c-.72-.27-1,.05-.73,1l7,10.87-.73.48-7-11.11c-.45.11-.7.37-.48,1l2.17,8.45-.73.24-2.89-9.9c-.73-.6-1.41-.78-1.93.24l-3.14,11.11-1-.48,2.66-9.42c0-.46-.19-.74-.73-.24l-6,8.93-1-.72,6-8.69c.21-.7,0-1-1-.73l-7,5.31-.73-1,8-6c1.17-1.32.35-2.12-1.45-2.65l-8.69,1.69V410.5l8-1.21c.38-.11.42-.26,0-.48l-10.38-2.41v-1l10.62,2.17c1,0,1.06-.4.48-1l-5.31-3.38.48-1L598,406.4c1.54.14,2.41-.68,2.66-2.42l-2.66-6,1-.24,2.41,6.52C601.84,404.59,602.25,404.63,602.6,404.22Z" style="fill: #fcfcfc"/>
          <circle cx="603.57" cy="393.6" r="1.45" style="fill: #fcfcfc"/>
          <circle cx="608.03" cy="398.31" r="1.33" style="fill: #fcfcfc"/>
          <circle cx="616.12" cy="402.53" r="1.21" style="fill: #fcfcfc"/>
          <circle cx="622.64" cy="405.43" r="1.21" style="fill: #fcfcfc"/>
          <circle cx="619.26" cy="411.95" r="1.21" style="fill: #fcfcfc"/>
          <circle cx="615.88" cy="419.67" r="1.21" style="fill: #fcfcfc"/>
          <circle cx="598.25" cy="396.98" r="1.21" style="fill: #fcfcfc"/>
          <circle cx="590.77" cy="402.29" r="1.21" style="fill: #fcfcfc"/>
          <circle cx="584.73" cy="405.67" r="1.21" style="fill: #fcfcfc"/>
          <circle cx="587.15" cy="411.47" r="1.21" style="fill: #fcfcfc"/>
          <circle cx="590.04" cy="419.67" r="1.21" style="fill: #fcfcfc"/>
          <circle cx="590.53" cy="419.43" r="1.21" style="fill: #fcfcfc"/>
          <circle cx="593.18" cy="424.5" r="1.21" style="fill: #fcfcfc"/>
          <circle cx="598.25" cy="425.71" r="1.21" style="fill: #fcfcfc"/>
          <circle cx="606.95" cy="424.75" r="1.21" style="fill: #fcfcfc"/>
          <circle cx="613.22" cy="425.71" r="1.21" style="fill: #fcfcfc"/>
        </g>
        <g>
          <path d="M245.15,287.47c.07,5.56.26,10.74,1.47,12.61,1.55,5.32,4.48,8.08,8.5,8.8,5.7,1.5,10.3,1.67,12.91-.58a14.51,14.51,0,0,0,6.16-7.34c3.06-6.38,3.36-11.24,0-14.08-3.44-4.25-8.16-7.27-13.2-10l10,2.93c6.57.17,10.74-1.1,12-4.1a14.28,14.28,0,0,0,3.81-7c2.83-4.78.91-9.45-2.93-14.08-2.7-2.8-5.32-5.19-7.63-5.87-2.59-1.12-5-1.24-7,0-2.7.66-4.61,1.71-5.57,3.23a34.61,34.61,0,0,1-9.39,7.63l3.52-5.87c4.44-6.37,4.42-11,2.05-14.67-3.7-5.28-7.85-8-12.31-9.09-3.42-.58-6.4-.13-8.8,1.76a14.54,14.54,0,0,0-6.75,5c-2.29,2.07-3,5.57-2.64,10,.52,2.85,2.8,7.24,5.87,12.32-5.28-4.56-9.37-8.88-12.32-11.44-3.84-.83-7.31-.57-10.27,1.17a16.28,16.28,0,0,0-10,10.86c-1,5,2.81,17.34,10.26,17.89,2.87.57,8.81.17,15.84-.59-6.76,2.72-13,5.59-14.37,10-1.69,2.74-1.38,6.24.29,10.27a13.51,13.51,0,0,0,8.51,10.27,31,31,0,0,0,11.15.29,12.92,12.92,0,0,0,7.62-7.33Z" style="fill: #f46ea0"/>
          <path d="M245.15,263.13l.29-11.74h1.47L246,263.13c.68.42,1.24.59,1.47,0l3.22-6.46.88.59L248.38,264c-.08,2,1.25,2.42,3.22,2.05l8.8-4.69.59.88-9.09,5c-.25.35-.1.52.29.59L268,264.59v.88l-15.55,3.82,11.73,2.34-.29.88-12.32-1.76c-1-.07-1.31.62-1.17,1.76l10.26,7.92-.88.88-9.09-7c-.87-.33-1.16.07-.88,1.17l8.51,13.2-.88.59L249,275.74c-.54.13-.84.44-.58,1.17L251,287.18l-.88.29-3.52-12c-.89-.73-1.71-.95-2.35.3l-3.81,13.49-1.18-.59,3.23-11.44c0-.56-.22-.9-.88-.29l-7.33,10.85-1.18-.88,7.34-10.56c.26-.85-.06-1.2-1.18-.88l-8.5,6.46-.88-1.18,9.68-7.33c1.41-1.61.42-2.57-1.76-3.23l-10.56,2.06v-1.47l9.68-1.46c.45-.14.5-.33,0-.59l-12.62-2.93v-1.18l12.91,2.64c1.27,0,1.29-.49.59-1.17L231.36,262l.59-1.17,7.63,5c1.86.17,2.92-.82,3.22-2.94l-3.22-7.33,1.17-.29,2.93,7.92C244.23,263.57,244.73,263.63,245.15,263.13Z" style="fill: #fcfcfc"/>
          <circle cx="246.32" cy="250.22" r="1.76" style="fill: #fcfcfc"/>
          <circle cx="251.75" cy="255.94" r="1.61" style="fill: #fcfcfc"/>
          <circle cx="261.57" cy="261.07" r="1.47" style="fill: #fcfcfc"/>
          <circle cx="269.49" cy="264.59" r="1.47" style="fill: #fcfcfc"/>
          <circle cx="265.39" cy="272.51" r="1.47" style="fill: #fcfcfc"/>
          <circle cx="261.28" cy="281.9" r="1.47" style="fill: #fcfcfc"/>
          <circle cx="239.87" cy="254.33" r="1.47" style="fill: #fcfcfc"/>
          <circle cx="230.78" cy="260.78" r="1.47" style="fill: #fcfcfc"/>
          <circle cx="223.44" cy="264.89" r="1.47" style="fill: #fcfcfc"/>
          <circle cx="226.38" cy="271.92" r="1.47" style="fill: #fcfcfc"/>
          <circle cx="229.9" cy="281.9" r="1.47" style="fill: #fcfcfc"/>
          <circle cx="230.48" cy="281.6" r="1.47" style="fill: #fcfcfc"/>
          <circle cx="233.71" cy="287.76" r="1.47" style="fill: #fcfcfc"/>
          <circle cx="239.87" cy="289.23" r="1.47" style="fill: #fcfcfc"/>
          <circle cx="250.43" cy="288.06" r="1.47" style="fill: #fcfcfc"/>
          <circle cx="258.05" cy="289.23" r="1.47" style="fill: #fcfcfc"/>
        </g>
        <g>
          <path d="M291.57,462.19c0,2.62.12,5.06.69,5.95.73,2.5,2.11,3.8,4,4.14,2.68.71,4.85.79,6.08-.27a6.89,6.89,0,0,0,2.9-3.46c1.44-3,1.58-5.29,0-6.63a19.51,19.51,0,0,0-6.22-4.7l4.7,1.38c3.09.08,5.06-.52,5.66-1.93a6.65,6.65,0,0,0,1.8-3.32c1.33-2.25.43-4.45-1.38-6.63a10.07,10.07,0,0,0-3.59-2.76,3.45,3.45,0,0,0-3.32,0,4.13,4.13,0,0,0-2.63,1.52,16.13,16.13,0,0,1-4.42,3.59l1.66-2.77c2.09-3,2.08-5.17,1-6.9a9.84,9.84,0,0,0-5.81-4.29,5.06,5.06,0,0,0-4.14.83,6.8,6.8,0,0,0-3.18,2.35c-1.08,1-1.39,2.63-1.24,4.7a20.94,20.94,0,0,0,2.76,5.8c-2.48-2.15-4.41-4.18-5.8-5.39a6.56,6.56,0,0,0-4.84.56,7.66,7.66,0,0,0-4.7,5.11c-.47,2.35,1.33,8.17,4.84,8.43a32.2,32.2,0,0,0,7.46-.28c-3.19,1.28-6.13,2.63-6.77,4.7-.8,1.29-.65,2.94.14,4.83a6.37,6.37,0,0,0,4,4.84,14.4,14.4,0,0,0,5.25.14,6.06,6.06,0,0,0,3.59-3.46C290.45,466.67,291,464.53,291.57,462.19Z" style="fill: #f46ea0"/>
          <path d="M291.57,450.73l.14-5.53h.69l-.42,5.53c.32.2.59.28.69,0l1.52-3,.42.27-1.52,3.18c0,1,.59,1.14,1.52,1l4.14-2.21.28.41-4.28,2.35c-.12.16-.05.25.14.28l7.46-1.52v.41l-7.33,1.8,5.53,1.1-.14.42-5.8-.83c-.48,0-.62.29-.55.83l4.83,3.73-.41.41L294.19,456c-.4-.16-.54,0-.41.55l4,6.22-.42.27-4-6.35c-.26.06-.4.2-.28.55l1.24,4.84-.41.13-1.66-5.66c-.42-.35-.8-.45-1.11.14L289.36,463l-.55-.27,1.52-5.39c0-.27-.11-.43-.42-.14l-3.45,5.11-.56-.41,3.46-5c.12-.4,0-.57-.55-.41l-4,3-.42-.55,4.56-3.46c.67-.75.2-1.21-.83-1.52l-5,1v-.69l4.56-.69c.22-.07.24-.15,0-.28L281.76,452v-.55l6.08,1.24c.6,0,.61-.23.27-.55l-3-1.94.28-.55,3.59,2.35c.88.08,1.38-.39,1.52-1.38l-1.52-3.46.56-.13,1.38,3.73C291.14,450.94,291.37,451,291.57,450.73Z" style="fill: #fcfcfc"/>
          <circle cx="292.12" cy="444.65" r="0.83" style="fill: #fcfcfc"/>
          <circle cx="294.68" cy="447.34" r="0.76" style="fill: #fcfcfc"/>
          <circle cx="299.31" cy="449.76" r="0.69" style="fill: #fcfcfc"/>
          <circle cx="303.04" cy="451.42" r="0.69" style="fill: #fcfcfc"/>
          <circle cx="301.1" cy="455.15" r="0.69" style="fill: #fcfcfc"/>
          <circle cx="299.17" cy="459.57" r="0.69" style="fill: #fcfcfc"/>
          <circle cx="289.08" cy="446.58" r="0.69" style="fill: #fcfcfc"/>
          <circle cx="284.8" cy="449.62" r="0.69" style="fill: #fcfcfc"/>
          <circle cx="281.34" cy="451.56" r="0.69" style="fill: #fcfcfc"/>
          <circle cx="282.73" cy="454.87" r="0.69" style="fill: #fcfcfc"/>
          <circle cx="284.38" cy="459.57" r="0.69" style="fill: #fcfcfc"/>
          <circle cx="284.66" cy="459.43" r="0.69" style="fill: #fcfcfc"/>
          <circle cx="286.18" cy="462.33" r="0.69" style="fill: #fcfcfc"/>
          <circle cx="289.08" cy="463.02" r="0.69" style="fill: #fcfcfc"/>
          <circle cx="294.06" cy="462.47" r="0.69" style="fill: #fcfcfc"/>
          <circle cx="297.65" cy="463.02" r="0.69" style="fill: #fcfcfc"/>
        </g>
        <g>
          <path d="M573.7,560.07c0,2.9.13,5.6.76,6.57.81,2.77,2.33,4.21,4.43,4.59,3,.78,5.36.86,6.72-.31a7.52,7.52,0,0,0,3.21-3.82c1.6-3.32,1.76-5.85,0-7.33a21.79,21.79,0,0,0-6.87-5.2l5.19,1.53c3.43.09,5.6-.58,6.27-2.14a7.3,7.3,0,0,0,2-3.67c1.48-2.49.48-4.92-1.52-7.33-1.41-1.46-2.77-2.7-4-3.06a3.88,3.88,0,0,0-3.66,0,4.62,4.62,0,0,0-2.91,1.68,17.91,17.91,0,0,1-4.89,4l1.84-3.06c2.31-3.32,2.3-5.72,1.07-7.64a10.9,10.9,0,0,0-6.42-4.74,5.6,5.6,0,0,0-4.58.92,7.57,7.57,0,0,0-3.52,2.6c-1.19,1.08-1.54,2.9-1.37,5.19a23.38,23.38,0,0,0,3,6.42c-2.74-2.37-4.88-4.63-6.42-6a7.26,7.26,0,0,0-5.34.61,8.49,8.49,0,0,0-5.2,5.66c-.52,2.59,1.47,9,5.35,9.32,1.49.3,4.59.09,8.25-.31-3.52,1.42-6.78,2.91-7.49,5.2-.88,1.42-.72,3.25.16,5.34a7,7,0,0,0,4.43,5.35,16,16,0,0,0,5.8.15,6.69,6.69,0,0,0,4-3.82C572.46,565,573.05,562.65,573.7,560.07Z" style="fill: #f46ea0"/>
          <path d="M573.7,547.39l.15-6.11h.76l-.45,6.11c.35.22.64.31.76,0L576.6,544l.46.3-1.68,3.52c0,1.06.65,1.26,1.68,1.07l4.58-2.45.31.46-4.74,2.6c-.12.18-.05.27.15.3l8.25-1.68v.46l-8.09,2,6.11,1.22-.15.46-6.42-.92c-.53,0-.69.32-.61.92l5.34,4.12-.45.46-4.74-3.66c-.45-.18-.6,0-.46.61l4.43,6.87-.46.31-4.43-7c-.28.07-.44.23-.3.61l1.37,5.35-.46.15-1.83-6.26c-.46-.38-.89-.5-1.22.15l-2,7-.61-.31,1.68-6c0-.29-.11-.47-.46-.15L568,560.22l-.61-.45,3.82-5.5c.14-.45,0-.63-.61-.46l-4.43,3.36-.46-.61,5-3.82c.74-.84.22-1.34-.91-1.68l-5.5,1.07v-.77l5-.76c.24-.07.26-.17,0-.31l-6.57-1.52v-.62l6.72,1.38c.66,0,.67-.25.31-.61l-3.36-2.14.3-.61,4,2.6c1,.09,1.53-.43,1.68-1.53l-1.68-3.82.61-.16,1.53,4.13C573.22,547.62,573.48,547.65,573.7,547.39Z" style="fill: #fcfcfc"/>
          <circle cx="574.31" cy="540.67" r="0.92" style="fill: #fcfcfc"/>
          <circle cx="577.13" cy="543.65" r="0.84" style="fill: #fcfcfc"/>
          <circle cx="582.25" cy="546.32" r="0.76" style="fill: #fcfcfc"/>
          <circle cx="586.38" cy="548.15" r="0.76" style="fill: #fcfcfc"/>
          <circle cx="584.24" cy="552.28" r="0.76" style="fill: #fcfcfc"/>
          <circle cx="582.1" cy="557.17" r="0.76" style="fill: #fcfcfc"/>
          <circle cx="570.95" cy="542.81" r="0.76" style="fill: #fcfcfc"/>
          <circle cx="566.21" cy="546.17" r="0.76" style="fill: #fcfcfc"/>
          <circle cx="562.39" cy="548.31" r="0.76" style="fill: #fcfcfc"/>
          <circle cx="563.92" cy="551.97" r="0.76" style="fill: #fcfcfc"/>
          <circle cx="565.75" cy="557.17" r="0.76" style="fill: #fcfcfc"/>
          <circle cx="566.06" cy="557.02" r="0.76" style="fill: #fcfcfc"/>
          <circle cx="567.74" cy="560.22" r="0.76" style="fill: #fcfcfc"/>
          <circle cx="570.95" cy="560.99" r="0.76" style="fill: #fcfcfc"/>
          <circle cx="576.45" cy="560.38" r="0.76" style="fill: #fcfcfc"/>
          <circle cx="580.42" cy="560.99" r="0.76" style="fill: #fcfcfc"/>
        </g>
        <g>
          <path d="M964.68,535.36a9.9,9.9,0,0,0,.42,3.61,3.14,3.14,0,0,0,2.44,2.52c1.63.43,3,.47,3.7-.17a4.15,4.15,0,0,0,1.76-2.1c.88-1.83,1-3.22,0-4a12,12,0,0,0-3.78-2.86l2.86.84c1.88.05,3.07-.31,3.44-1.17a4.08,4.08,0,0,0,1.09-2c.81-1.37.26-2.71-.84-4a6.05,6.05,0,0,0-2.18-1.68,2.12,2.12,0,0,0-2,0,2.5,2.5,0,0,0-1.59.92,9.92,9.92,0,0,1-2.69,2.19l1-1.68c1.27-1.83,1.26-3.15.58-4.2a6,6,0,0,0-3.52-2.61,3,3,0,0,0-2.52.51,4.17,4.17,0,0,0-1.94,1.42,3.43,3.43,0,0,0-.75,2.86,13,13,0,0,0,1.68,3.53c-1.51-1.31-2.68-2.55-3.53-3.28a4,4,0,0,0-2.94.34,4.66,4.66,0,0,0-2.86,3.11c-.28,1.42.81,5,2.94,5.12a19.77,19.77,0,0,0,4.54-.17c-1.94.78-3.73,1.6-4.12,2.86a3.19,3.19,0,0,0,.09,2.94,3.88,3.88,0,0,0,2.43,2.94,8.94,8.94,0,0,0,3.2.08,3.73,3.73,0,0,0,2.18-2.1Z" style="fill: #f46ea0"/>
          <path d="M964.68,528.38l.09-3.36h.42l-.25,3.36c.19.13.35.17.42,0l.92-1.84.25.16-.92,1.94c0,.58.36.69.92.58l2.52-1.34.17.25-2.6,1.43c-.07.1,0,.15.08.17l4.54-.93v.26l-4.46,1.09,3.36.67-.08.25-3.53-.5c-.29,0-.37.17-.33.5l2.94,2.27-.26.25-2.6-2c-.25-.1-.33,0-.25.33l2.43,3.78-.25.17L965.78,532c-.16,0-.25.12-.17.33l.75,2.94-.25.09-1-3.45c-.25-.21-.48-.27-.67.09l-1.09,3.86-.34-.17.93-3.27c0-.16-.06-.26-.25-.09l-2.1,3.11-.34-.25,2.1-3c.08-.24,0-.34-.34-.25l-2.43,1.85-.25-.34,2.77-2.1c.4-.46.12-.73-.51-.92l-3,.59v-.42l2.77-.42c.13,0,.15-.09,0-.17l-3.61-.84v-.34l3.7.76c.36,0,.37-.14.16-.34l-1.84-1.17.16-.34,2.19,1.43c.53.05.84-.23.92-.84l-.92-2.1.33-.08.84,2.26C964.42,528.51,964.56,528.53,964.68,528.38Z" style="fill: #fcfcfc"/>
          <circle cx="965.02" cy="524.69" r="0.5" style="fill: #fcfcfc"/>
          <circle cx="966.57" cy="526.33" r="0.46" style="fill: #fcfcfc"/>
          <circle cx="969.39" cy="527.8" r="0.42" style="fill: #fcfcfc"/>
          <circle cx="971.66" cy="528.8" r="0.42" style="fill: #fcfcfc"/>
          <circle cx="970.48" cy="531.07" r="0.42" style="fill: #fcfcfc"/>
          <circle cx="969.3" cy="533.76" r="0.42" style="fill: #fcfcfc"/>
          <circle cx="963.17" cy="525.86" r="0.42" style="fill: #fcfcfc"/>
          <circle cx="960.57" cy="527.71" r="0.42" style="fill: #fcfcfc"/>
          <circle cx="958.47" cy="528.89" r="0.42" style="fill: #fcfcfc"/>
          <circle cx="959.31" cy="530.9" r="0.42" style="fill: #fcfcfc"/>
          <circle cx="960.32" cy="533.76" r="0.42" style="fill: #fcfcfc"/>
          <circle cx="960.48" cy="533.68" r="0.42" style="fill: #fcfcfc"/>
          <circle cx="961.41" cy="535.44" r="0.42" style="fill: #fcfcfc"/>
          <circle cx="963.17" cy="535.86" r="0.42" style="fill: #fcfcfc"/>
          <circle cx="966.2" cy="535.52" r="0.42" style="fill: #fcfcfc"/>
          <circle cx="968.38" cy="535.86" r="0.42" style="fill: #fcfcfc"/>
        </g>
        <g>
          <path d="M456.7,453.07c0,2.9.13,5.6.76,6.57.81,2.77,2.33,4.21,4.43,4.59,3,.78,5.36.86,6.72-.31a7.52,7.52,0,0,0,3.21-3.82c1.6-3.32,1.76-5.85,0-7.33a21.79,21.79,0,0,0-6.87-5.2l5.19,1.53c3.43.09,5.6-.58,6.27-2.14a7.3,7.3,0,0,0,2-3.67c1.48-2.49.48-4.92-1.52-7.33-1.41-1.46-2.77-2.7-4-3.06a3.88,3.88,0,0,0-3.66,0,4.62,4.62,0,0,0-2.91,1.68,17.91,17.91,0,0,1-4.89,4l1.84-3.06c2.31-3.32,2.3-5.72,1.07-7.64a10.9,10.9,0,0,0-6.42-4.74,5.6,5.6,0,0,0-4.58.92,7.57,7.57,0,0,0-3.52,2.6c-1.19,1.08-1.54,2.9-1.37,5.19a23.38,23.38,0,0,0,3.05,6.42c-2.74-2.37-4.88-4.63-6.42-6a7.26,7.26,0,0,0-5.34.61,8.49,8.49,0,0,0-5.2,5.66c-.52,2.59,1.47,9,5.35,9.32,1.49.3,4.59.09,8.25-.31-3.52,1.42-6.78,2.91-7.49,5.2-.88,1.42-.72,3.25.16,5.34a7,7,0,0,0,4.43,5.35,16,16,0,0,0,5.8.15,6.69,6.69,0,0,0,4-3.82C455.46,458,456.05,455.65,456.7,453.07Z" style="fill: #f46ea0"/>
          <path d="M456.7,440.39l.15-6.11h.76l-.45,6.11c.35.22.64.31.76,0L459.6,437l.46.3-1.68,3.52c0,1.06.65,1.26,1.68,1.07l4.58-2.45.31.46-4.74,2.6c-.12.18,0,.27.15.3l8.25-1.68v.46l-8.09,2,6.11,1.22-.15.46-6.42-.92c-.53,0-.69.32-.61.92l5.34,4.12-.45.46-4.74-3.66c-.45-.18-.6,0-.46.61l4.43,6.87-.46.31-4.43-7c-.28.07-.44.23-.3.61l1.37,5.35-.46.15-1.83-6.26c-.46-.38-.89-.5-1.22.15l-2,7-.61-.31,1.68-6c0-.29-.11-.47-.46-.15L451,453.22l-.61-.45,3.82-5.5c.14-.45,0-.63-.61-.46l-4.43,3.36-.46-.61,5-3.82c.74-.84.22-1.34-.91-1.68l-5.5,1.07v-.77l5-.76c.24-.07.26-.17,0-.31l-6.57-1.52v-.62l6.72,1.38c.66,0,.67-.25.31-.61l-3.36-2.14.3-.61,4,2.6c1,.09,1.53-.43,1.68-1.53l-1.68-3.82.61-.16,1.53,4.13C456.22,440.62,456.48,440.65,456.7,440.39Z" style="fill: #fcfcfc"/>
          <circle cx="457.31" cy="433.67" r="0.92" style="fill: #fcfcfc"/>
          <circle cx="460.13" cy="436.65" r="0.84" style="fill: #fcfcfc"/>
          <circle cx="465.25" cy="439.32" r="0.76" style="fill: #fcfcfc"/>
          <circle cx="469.38" cy="441.15" r="0.76" style="fill: #fcfcfc"/>
          <circle cx="467.24" cy="445.28" r="0.76" style="fill: #fcfcfc"/>
          <circle cx="465.1" cy="450.17" r="0.76" style="fill: #fcfcfc"/>
          <circle cx="453.95" cy="435.81" r="0.76" style="fill: #fcfcfc"/>
          <circle cx="449.21" cy="439.17" r="0.76" style="fill: #fcfcfc"/>
          <circle cx="445.39" cy="441.31" r="0.76" style="fill: #fcfcfc"/>
          <circle cx="446.92" cy="444.97" r="0.76" style="fill: #fcfcfc"/>
          <circle cx="448.75" cy="450.17" r="0.76" style="fill: #fcfcfc"/>
          <circle cx="449.06" cy="450.02" r="0.76" style="fill: #fcfcfc"/>
          <circle cx="450.74" cy="453.22" r="0.76" style="fill: #fcfcfc"/>
          <circle cx="453.95" cy="453.99" r="0.76" style="fill: #fcfcfc"/>
          <circle cx="459.45" cy="453.38" r="0.76" style="fill: #fcfcfc"/>
          <circle cx="463.42" cy="453.99" r="0.76" style="fill: #fcfcfc"/>
        </g>
      </g>
    </g>
    <g id="Warstwa_30" data-name="Warstwa 30">
      <g>
        <path d="M1494.56,710.93c-11.58,13.78-21.81,26.57-23.38,33.06a16.05,16.05,0,0,0,11.28,0c6.58-3.62,12.33-8.75,17.74-14.51h4.54a4.93,4.93,0,0,0,4.92-5.14l-.59-13.41Z" style="fill: #6e3428;stroke: #3d1c16;stroke-miterlimit: 10;stroke-width: 0.75px"/>
        <line x1="1482.75" y1="725.4" x2="1488.11" y2="728.27" style="fill: #6e3428;stroke: #3d1c16;stroke-miterlimit: 10;stroke-width: 0.75px"/>
        <line x1="1488.11" y1="718.7" x2="1492.14" y2="721.01" style="fill: #6e3428;stroke: #3d1c16;stroke-miterlimit: 10;stroke-width: 0.75px"/>
        <path d="M1509.88,724.24c-.4,4.74-4.65,6.52-10.08,5.24A38.53,38.53,0,0,1,1509.88,724.24Z" style="fill: #3d1c16"/>
      </g>
      <g>
        <path d="M1552.62,710.93c11.57,13.78,21.8,26.57,23.38,33.06a16.08,16.08,0,0,1-11.29,0c-6.58-3.62-12.33-8.75-17.74-14.51h-4.53a4.92,4.92,0,0,1-4.92-5.14l.58-13.41Z" style="fill: #6e3428;stroke: #3d1c16;stroke-miterlimit: 10;stroke-width: 0.75px"/>
        <line x1="1564.43" y1="725.4" x2="1559.07" y2="728.27" style="fill: #6e3428;stroke: #3d1c16;stroke-miterlimit: 10;stroke-width: 0.75px"/>
        <line x1="1559.07" y1="718.7" x2="1555.04" y2="721.01" style="fill: #6e3428;stroke: #3d1c16;stroke-miterlimit: 10;stroke-width: 0.75px"/>
        <path d="M1537.3,724.24c.39,4.74,4.65,6.52,10.08,5.24A38.69,38.69,0,0,0,1537.3,724.24Z" style="fill: #3d1c16"/>
      </g>
      <path d="M1476.82,441.42c-5.76,15.55-7.38,36.48-7.26,59.66l7.26,70.16,9.68,87.08,5.55,53.18a1,1,0,0,0,.94.85h17a.78.78,0,0,0,.78-.75l6.42-167,18.45,166.89a.81.81,0,0,0,.91.72l17.58-2.19a1.16,1.16,0,0,0,1-1.09l8.78-165.37a11.2,11.2,0,0,0,0-1.16l-4.81-99.4Z" style="fill: #232b4f;stroke: #222833;stroke-miterlimit: 10;stroke-width: 0.5px"/>
      <path d="M1510.69,451.9v37.9a15.06,15.06,0,0,0,4.83,10.48A16.84,16.84,0,0,0,1522,489.8V462.38" style="fill: none;stroke: #222833;stroke-miterlimit: 10;opacity: 0.8"/>
      <line x1="1546.97" y1="537.37" x2="1548.58" y2="584.14" style="fill: none;stroke: #222833;stroke-miterlimit: 10;opacity: 0.8"/>
      <line x1="1492.95" y1="588.98" x2="1496.17" y2="649.45" style="fill: none;stroke: #222833;stroke-miterlimit: 10;opacity: 0.8"/>
      <line x1="1542.94" y1="622.84" x2="1542.94" y2="634.94" style="fill: none;stroke: #222833;stroke-miterlimit: 10;opacity: 0.8"/>
      <line x1="1545.36" y1="636.55" x2="1546.97" y2="679.29" style="fill: none;stroke: #222833;stroke-miterlimit: 10;opacity: 0.8"/>
      <polyline points="1516.73 544.22 1515.12 508.75 1517.66 549.36" style="fill: none;stroke: #222833;stroke-miterlimit: 10;opacity: 0.8"/>
      <path d="M1475.21,446.25c29.26,3.89,57.38,4.22,83.86,0v-4H1476Z" style="fill: #222833;opacity: 0.7000000000000001"/>
      <polygon points="1475.21 435.77 1474.4 443.83 1512.3 447.06 1521.17 447.06 1559.87 443.83 1559.07 435.77 1475.21 435.77" style="fill: #5b3230"/>
      <rect x="1511.9" y="440.21" width="8.87" height="6.45" style="fill: none;stroke: #b3b3b3;stroke-miterlimit: 10"/>
      <line x1="1511.9" y1="443.43" x2="1516.33" y2="443.43" style="fill: none;stroke: #b3b3b3;stroke-miterlimit: 10;stroke-width: 0.75px"/>
      <line x1="1483.27" y1="444.64" x2="1484.08" y2="438.19" style="fill: none;stroke: #222833;stroke-miterlimit: 10;stroke-width: 3px"/>
      <line x1="1501.82" y1="439" x2="1501.01" y2="446.25" style="fill: none;stroke: #222833;stroke-miterlimit: 10;stroke-width: 3px"/>
      <line x1="1530.85" y1="439" x2="1531.65" y2="446.25" style="fill: none;stroke: #222833;stroke-miterlimit: 10;stroke-width: 3px"/>
      <line x1="1547.78" y1="437.38" x2="1549.39" y2="444.64" style="fill: none;stroke: #222833;stroke-miterlimit: 10;stroke-width: 3px"/>
      <g>
        <polygon points="1500.61 262.81 1500.61 273.29 1517.54 290.23 1532.86 274.1 1532.86 262.81 1500.61 262.81" style="fill: #eac5a4"/>
        <path d="M1500.61,262v5.64c3,2.49,5.9,4.81,8.87,5.64a30,30,0,0,0,15.32,0c2.84-1.34,5.48-3.77,8.06-6.45V262Z" style="opacity: 0.05"/>
      </g>
      <path d="M1500.61,272.49c-17.22,9.74-33.18,19.26-39.11,27l14.11,81.84c-1.7,19.7-3.92,39.9-1.61,55.64a286.54,286.54,0,0,0,85.87-1.21c2.7-12,2.27-34.26,1.62-57.25a408.35,408.35,0,0,1,13.7-80.63c-11.77-9.87-26-18-41.93-25l-15.32,17.74Z" style="fill: #95b0d8;stroke: #61749b;stroke-miterlimit: 10;stroke-width: 0.25px"/>
      <rect x="1529.23" y="321.27" width="24.19" height="9.68" style="fill: #7a91bc;stroke: #7a91bc;stroke-miterlimit: 10;opacity: 0.5"/>
      <polygon points="1529.23 330.95 1529.23 346.27 1541.33 351.91 1553.42 346.27 1553.42 330.95 1529.23 330.95" style="fill: none;stroke: #7a91bc;stroke-miterlimit: 10;opacity: 0.4"/>
      <circle cx="1516.73" cy="301.52" r="1.21" style="fill: #3c567f;opacity: 0.8"/>
      <circle cx="1517.14" cy="315.27" r="1.21" style="fill: #3c567f;opacity: 0.8"/>
      <circle cx="1517.14" cy="329.02" r="1.21" style="fill: #3c567f;opacity: 0.8"/>
      <circle cx="1516.73" cy="342.77" r="1.21" style="fill: #3c567f;opacity: 0.8"/>
      <circle cx="1517.14" cy="356.53" r="1.21" style="fill: #3c567f;opacity: 0.8"/>
      <circle cx="1517.14" cy="370.28" r="1.21" style="fill: #3c567f;opacity: 0.8"/>
      <circle cx="1516.73" cy="384.03" r="1.21" style="fill: #3c567f;opacity: 0.8"/>
      <circle cx="1517.14" cy="397.78" r="1.21" style="fill: #3c567f;opacity: 0.8"/>
      <circle cx="1517.14" cy="411.54" r="1.21" style="fill: #3c567f;opacity: 0.8"/>
      <circle cx="1517.14" cy="425.29" r="1.21" style="fill: #3c567f;opacity: 0.8"/>
      <path d="M1512,295.41c1.31,43.37,1.09,92.23,0,144.24" style="fill: none;stroke: #7a91bc;stroke-miterlimit: 10;opacity: 0.6000000000000001"/>
      <path d="M1521.58,296q.29,73.38-.57,143.61" style="fill: none;stroke: #7a91bc;stroke-miterlimit: 10;opacity: 0.5"/>
      <path d="M1478.43,416.42c6.93,6.62,14,12.83,21.77,16.93" style="fill: none;stroke: #7a91bc;stroke-miterlimit: 10;opacity: 0.7000000000000001"/>
      <path d="M1525.2,429.32c11.25.19,21-4.21,28.22-16.93" style="fill: none;stroke: #7a91bc;stroke-miterlimit: 10;opacity: 0.6000000000000001"/>
      <polygon points="1494.16 275.71 1490.93 278.13 1511.9 298.29 1516.73 295.06 1522.38 299.1 1544.15 278.13 1541.73 276.52 1517.54 291.84 1494.16 275.71" style="opacity: 0.1"/>
      <polygon points="1491.74 277.33 1511.9 295.87 1517.14 293.05 1522.38 296.68 1543.34 277.33 1533.26 272.89 1517.54 290.23 1500.2 272.08 1491.74 277.33" style="fill: #7a91bc;stroke: #61749b;stroke-miterlimit: 10;stroke-width: 0.25px;opacity: 0.9"/>
      <g>
        <path d="M1540.44,239.59a14.54,14.54,0,0,0,.46-8.05c.09-1.6,1.12-2.36,2.66-2.67a3.88,3.88,0,0,1,3.89,1.85,6.84,6.84,0,0,1,.72,3.58,8,8,0,0,1-1.23,4.91,8.08,8.08,0,0,1-3.28,3.07,2.88,2.88,0,0,1-2.25-.41,2.63,2.63,0,0,1-1-1.5A1.11,1.11,0,0,1,1540.44,239.59Z" style="fill: #f9d0b2"/>
        <path d="M1542.18,233.27a.36.36,0,0,1-.06-.2,1.93,1.93,0,0,1,1-1.94,2.47,2.47,0,0,1,2.61.17l.1.07a3.67,3.67,0,0,1,1.18,2.83,8.29,8.29,0,0,1-.61,3.48,5,5,0,0,1-2,2.45c-.9.44-1.46.35-1.84,0a1.3,1.3,0,0,1-.62-1.63l2.56-.72Z" style="fill: #efb39b"/>
        <path d="M1542.32,235.06l-.19-1.89a12.36,12.36,0,0,1,2.66,2.05,2.21,2.21,0,0,1,0,2.25,2.35,2.35,0,0,1-2.87,1,1.54,1.54,0,0,1,.14-.86.3.3,0,0,1,.23-.19,1.52,1.52,0,0,0,1.17-.9c.19-.6,0-1-.41-1.23l-.56-.08A.2.2,0,0,1,1542.32,235.06Z" style="fill: #e28b7a"/>
      </g>
      <g>
        <path d="M1490,239.59a14.54,14.54,0,0,1-.46-8.05c-.09-1.6-1.13-2.36-2.66-2.67a3.86,3.86,0,0,0-3.89,1.85,6.74,6.74,0,0,0-.72,3.58,7.89,7.89,0,0,0,1.23,4.91,8,8,0,0,0,3.27,3.07,2.89,2.89,0,0,0,2.26-.41,2.63,2.63,0,0,0,1-1.5A1.16,1.16,0,0,0,1490,239.59Z" style="fill: #f9d0b2"/>
        <path d="M1488.29,233.27a.66.66,0,0,0,.06-.2,1.93,1.93,0,0,0-1-1.94,2.47,2.47,0,0,0-2.61.17l-.1.07a3.67,3.67,0,0,0-1.18,2.83,8.13,8.13,0,0,0,.61,3.48,5,5,0,0,0,2,2.45c.9.44,1.46.35,1.84,0a1.29,1.29,0,0,0,.61-1.63l-2.55-.72Z" style="fill: #efb39b"/>
        <path d="M1488.15,235.06l.19-1.89a12.12,12.12,0,0,0-2.66,2.05,2.21,2.21,0,0,0,0,2.25,2.35,2.35,0,0,0,2.86,1,1.53,1.53,0,0,0-.13-.86.32.32,0,0,0-.23-.19,1.52,1.52,0,0,1-1.17-.9c-.19-.6,0-1,.41-1.23l.56-.08A.2.2,0,0,0,1488.15,235.06Z" style="fill: #e28b7a"/>
      </g>
      <path d="M1522.38,271.68c-3.85,1.26-8.25,1-12.9,0-7.23-3-11-9-16.46-16.52a26.76,26.76,0,0,1-4-9.67c-1-6.07-3-11.05-2.08-14.93l3.23-28.22c16.38-4.89,32-5,46.76,0l6.86,28.62-1.51,12.95a26.54,26.54,0,0,1-3.7,10.78l0,.06C1533.26,263.31,1530.4,268.8,1522.38,271.68Z" style="fill: #fad3aa"/>
      <path d="M1515.12,229.75l4.49,15.72a1.52,1.52,0,0,1-.78,1.78l-2.1,1.05" style="fill: none;stroke: #af855f;stroke-linecap: round;stroke-miterlimit: 10"/>
      <path d="M1508.3,258.12c7.07,2.64,11.32,2.88,18.54.52" style="fill: none;stroke: #af855f;stroke-linecap: round;stroke-miterlimit: 10;stroke-width: 0.75px;opacity: 0.7000000000000001"/>
      <path d="M1532.66,236c-.19.07-6.62.29-7,.3-1.75.08-4.56-2.25-4-4.51a1.32,1.32,0,0,1,.79-1c5.64-1.55,10-1.64,14.39.85C1537,231.74,1536.12,234.82,1532.66,236Z" style="fill: #af8968;opacity: 0.4"/>
      <path d="M1496.79,236c.19.07,6.62.29,7,.3,1.75.08,4.56-2.25,4-4.51a1.32,1.32,0,0,0-.79-1c-5.64-1.55-10-1.64-14.39.85C1492.45,231.74,1493.33,234.82,1496.79,236Z" style="fill: #af8968;opacity: 0.4"/>
      <path d="M1491.74,225.72l-.81.81s9.2-1,14.8-.87a1.29,1.29,0,0,0,1.33-1.29v-.26A56.27,56.27,0,0,0,1491.74,225.72Z" style="fill: #af8968"/>
      <path d="M1536.89,225.72l.81.81s-9.2-1-14.8-.87a1.29,1.29,0,0,1-1.33-1.29v-.26A56.27,56.27,0,0,1,1536.89,225.72Z" style="fill: #af8968"/>
      <path d="M1486.09,233l.81.8c4.25-8.65,7.55-17.27,8.87-25.8l5.64,7.26,10.49-8.07,12.9,8.07,8.87-11.29,9.67,30.64,1.62-4-9.68-31.45L1520,200.72,1495,204l-6.45,11.29Z" style="fill: #af8968"/>
      <path d="M1516.73,248.3c.84.48,1.1.4,2.42,0,.62-.19,1.81-1.81,1.62-2.42a110.51,110.51,0,0,0-5.25-15.72l4,16.12Z" style="fill: #af855f;opacity: 0.4"/>
      <path d="M1495.65,236.84c.21.07,7.34.31,7.76.33,1.94.09,5-2.23,4.38-4.49a1.35,1.35,0,0,0-.87-1c-6.26-1.58-11-1.69-15.94.79C1490.82,232.55,1491.82,235.63,1495.65,236.84Z" style="fill: #af8968;opacity: 0.2"/>
      <path d="M1533.84,236.84c-.22.07-7.34.31-7.76.33-1.94.09-5-2.23-4.39-4.49a1.38,1.38,0,0,1,.88-1c6.26-1.58,11-1.69,15.94.79C1538.67,232.55,1537.67,235.63,1533.84,236.84Z" style="fill: #af8968;opacity: 0.2"/>
      <path d="M1486.9,233l5.64-14.52,3.23-12.09,5.64,7.26,10.49-8.07,12.9,8.07,8.87-11.29,5.64,16.93,4,13.71,3.15-3.15a3.31,3.31,0,0,0,1-2.13l1.43-24.33a3.64,3.64,0,0,0-1.31-3l-8.26-6.88-5.27-7.53a.2.2,0,0,0-.37.12v2.57l-8.62-4.31a3.73,3.73,0,0,0-2.23-.34L1495,188.49a3.67,3.67,0,0,0-1.54.64l-13.39,9.67a.32.32,0,0,0,0,.55l3.46,1.73a.93.93,0,0,1,.37,1.31l-2.81,4.49a4,4,0,0,0-.6,2.39l1.42,19.14a3.09,3.09,0,0,0,1.15,2.18Z" style="fill: #32231e"/>
      <path d="M1521.57,222.49v2a.4.4,0,0,0,.45.4,37.13,37.13,0,0,1,15.68,1.67,17.46,17.46,0,0,0-6.85-4.69,2.4,2.4,0,0,0-.84-.15h-7.63A.8.8,0,0,0,1521.57,222.49Z" style="fill: #32211a"/>
      <path d="M1507.06,222.49v2a.4.4,0,0,1-.45.4,37.13,37.13,0,0,0-15.68,1.67,17.46,17.46,0,0,1,6.85-4.69,2.4,2.4,0,0,1,.84-.15h7.63A.8.8,0,0,1,1507.06,222.49Z" style="fill: #32211a"/>
      <g>
        <path d="M1497.25,235.26c.18.06,6.1.27,6.45.28,1.61.07,4.18-1.71,3.63-3.46a1.21,1.21,0,0,0-.73-.78c-5-1.88-9-1.91-13.23.57C1493.24,231.94,1494.07,234.32,1497.25,235.26Z" style="fill: #f2f2f2;stroke: #361e12;stroke-miterlimit: 10;stroke-width: 0.1px"/>
        <ellipse cx="1500.65" cy="232.56" rx="2.84" ry="3.27" transform="translate(1203.84 1721.84) rotate(-87.54)" style="fill: #225572;opacity: 0.7000000000000001"/>
        <ellipse cx="1500.74" cy="232.48" rx="1.96" ry="1.89" transform="translate(1204.01 1721.84) rotate(-87.54)" style="fill: #225572;opacity: 0.7000000000000001"/>
        <ellipse cx="1500.74" cy="232.48" rx="1.07" ry="1.03" transform="matrix(0.04, -1, 1, 0.04, 1204.01, 1721.84)"/>
        <ellipse cx="1499.49" cy="231.45" rx="0.36" ry="0.34" transform="translate(1203.85 1719.61) rotate(-87.54)" style="fill: #fff;opacity: 0.7000000000000001"/>
        <path d="M1493.37,231.87c.7-3.24,13.21-3,13.73-.22C1504.87,232.25,1495.51,232.58,1493.37,231.87Z" style="fill: #324349;opacity: 0.4"/>
        <path d="M1493.37,231.87c1.79-1.16,3-1.22,5.62-1.17a16.65,16.65,0,0,1,8.12,1.1l.05-1.13c-2.6-1.46-6.1-1.54-10.47-1.08C1494.33,230.3,1493.83,230.17,1493.37,231.87Z" style="fill: #361e12"/>
      </g>
      <g>
        <path d="M1532.53,235.26c-.17.06-6.09.27-6.44.28-1.61.07-4.18-1.71-3.63-3.46a1.21,1.21,0,0,1,.73-.78c5-1.88,9-1.91,13.23.57C1536.55,231.94,1535.72,234.32,1532.53,235.26Z" style="fill: #f2f2f2;stroke: #361e12;stroke-miterlimit: 10;stroke-width: 0.1px"/>
        <ellipse cx="1529.14" cy="232.56" rx="3.27" ry="2.84" transform="translate(-8.58 65.89) rotate(-2.46)" style="fill: #225572;opacity: 0.7000000000000001"/>
        <ellipse cx="1529.05" cy="232.48" rx="1.89" ry="1.96" transform="matrix(1, -0.04, 0.04, 1, -8.57, 65.89)" style="fill: #225572;opacity: 0.7000000000000001"/>
        <ellipse cx="1529.05" cy="232.48" rx="1.03" ry="1.07" transform="translate(-8.57 65.89) rotate(-2.46)"/>
        <ellipse cx="1530.3" cy="231.45" rx="0.34" ry="0.36" transform="translate(-8.53 65.94) rotate(-2.46)" style="fill: #fff;opacity: 0.7000000000000001"/>
        <path d="M1536.42,231.87c-.7-3.24-13.21-3-13.73-.22C1524.92,232.25,1534.28,232.58,1536.42,231.87Z" style="fill: #324349;opacity: 0.4"/>
        <path d="M1536.42,231.87c-1.79-1.16-3-1.22-5.62-1.17a16.65,16.65,0,0,0-8.12,1.1l0-1.13c2.6-1.46,6.1-1.54,10.47-1.08C1535.46,230.3,1536,230.17,1536.42,231.87Z" style="fill: #361e12"/>
      </g>
      <line x1="1515.52" y1="264.02" x2="1519.56" y2="264.02" style="fill: none;stroke: #af855f;stroke-linecap: round;stroke-miterlimit: 10;stroke-width: 0.25px;opacity: 0.7000000000000001"/>
    </g>
  </g>
</svg>
