<svg xmlns="http://www.w3.org/2000/svg" width="43.54" height="725" viewBox="0 0 43.54 725">
  <title>nav_right</title>
  <g id="Warstwa_2" data-name="Warstwa 2">
    <g id="Warstwa_2-2" data-name="Warstwa 2">
      <g>
        <polygon points="18.32 614.6 26 603.26 26 589.86 22.18 580.08 26 581.19 26 537 22 537 22 508 26 508 26 324 22 324 22 268 26 268 26 163.43 10.48 162.57 26 144.48 26 120.09 22.89 108.35 26 109.65 26 92 18 92 18 52 26 52 26 0 0 0 0 725 26 725 26 614.15 18.32 614.6" style="fill: rgb(219, 219, 219)"/>
        <rect x="17" y="190" width="22" height="45" style="fill: rgb(219, 219, 219)"/>
        <rect x="23" width="16" height="30" style="fill: rgb(219, 219, 219)"/>
        <rect x="19" y="416" width="9" height="47" style="fill: rgb(219, 219, 219)"/>
        <polygon points="43.53 674.71 36.71 685.7 41.9 697.55 29.34 694.45 19.67 703.04 18.73 690.15 7.57 683.61 19.55 678.73 22.32 666.09 30.66 675.98 43.53 674.71" style="fill: rgb(219, 219, 219)"/>
        <polygon points="34.67 374.39 22.61 367.46 10.07 373.47 12.93 359.86 3.34 349.79 17.16 348.31 23.78 336.08 29.46 348.76 43.14 351.27 32.83 360.6 34.67 374.39" style="fill: rgb(219, 219, 219)"/>
      </g>
    </g>
  </g>
</svg>
