<svg xmlns="http://www.w3.org/2000/svg" width="506" height="237" viewBox="0 0 506 237">
  <title>profile_background</title>
  <g id="Warstwa_2" data-name="Warstwa 2">
    <g id="Warstwa_2-2" data-name="Warstwa 2">
      <polygon points="5 6 84 6 84 11 116 11 116 6 154 6 160 0 165 5 170.5 10.5 175.5 5.5 217 5 290 5 290 0 329 0 329 5 433 5 433 11 449 11 449 5 496 5 485 33 496 59 496 95 488 95 488 113 496 113 496 160 506 160 506 183 495 183 495 215 506 230 425 230 425 237 407 237 407 230 369 230 369 224 346 224 346 231 282 231 273 224 261 231 175 231 175 235 140 235 140 231 114 231 5 231 14 222 5.5 213.5 5 140 0 140 0 115 5 115 5 6" style="fill: black"/>
    </g>
  </g>
</svg>
