<svg xmlns="http://www.w3.org/2000/svg" width="207.5" height="315.63" viewBox="0 0 207.5 315.63">
  <title>Zasób 2</title>
  <g id="Warstwa_2" data-name="Warstwa 2">
    <g id="Warstwa_4" data-name="Warstwa 4">
      <g>
        <polyline points="159.87 136 207.5 164.43 159.87 193.62 113 164.43 159.87 136" style="fill: #2e3192"/>
        <polyline points="159.87 193.62 159.87 246.63 113 218.21 113 164.43" style="fill: #29abe2"/>
        <polygon points="207.5 164.43 207.5 218.21 159.87 246.63 159.87 193.62 207.5 164.43" style="fill: #0071bc"/>
      </g>
      <g>
        <polyline points="159.87 69 207.5 97.43 159.87 126.62 113 97.43 159.87 69" style="fill: #2e3192"/>
        <polyline points="159.87 126.62 159.87 179.63 113 151.21 113 97.43" style="fill: #29abe2"/>
        <polygon points="207.5 97.43 207.5 151.21 159.87 179.63 159.87 126.62 207.5 97.43" style="fill: #0071bc"/>
      </g>
      <g>
        <polyline points="159.87 0 207.5 28.43 159.87 57.62 113 28.43 159.87 0" style="fill: #29abe2"/>
        <polyline points="159.87 57.62 159.87 110.63 113 82.21 113 28.43" style="fill: #29abe2"/>
        <polygon points="207.5 28.43 207.5 82.21 159.87 110.63 159.87 57.62 207.5 28.43" style="fill: #0071bc"/>
      </g>
      <g>
        <polyline points="103.87 170 151.5 198.43 103.87 227.62 57 198.43 103.87 170" style="fill: #603f5d"/>
        <polyline points="103.87 227.62 103.87 280.63 57 252.21 57 198.43" style="fill: #ffa7f6"/>
        <polygon points="151.5 198.43 151.5 252.21 103.87 280.63 103.87 227.62 151.5 198.43" style="fill: #bf7db9"/>
      </g>
      <g>
        <polyline points="103.87 105 151.5 133.43 103.87 162.62 57 133.43 103.87 105" style="fill: #ffa7f6"/>
        <polyline points="103.87 162.62 103.87 215.63 57 187.21 57 133.43" style="fill: #ffa7f6"/>
        <polygon points="151.5 133.43 151.5 187.21 103.87 215.63 103.87 162.62 151.5 133.43" style="fill: #bf7db9"/>
      </g>
      <g>
        <polyline points="46.87 205 94.5 233.43 46.87 262.62 0 233.43 46.87 205" style="fill: #b5ff95"/>
        <polyline points="46.87 262.62 46.87 315.63 0 287.21 0 233.43" style="fill: #b5ff95"/>
        <polygon points="94.5 233.43 94.5 287.21 46.87 315.63 46.87 262.62 94.5 233.43" style="fill: #88bf70"/>
      </g>
    </g>
  </g>
</svg>
