<svg xmlns="http://www.w3.org/2000/svg" width="290.05" height="325.34" viewBox="0 0 290.05 325.34">
  <title>Zasób 5</title>
  <g id="Warstwa_2" data-name="Warstwa 2">
    <g id="Warstwa_6" data-name="Warstwa 6">
      <g>
        <path d="M99,267.55l40-53,4-6c30.39-54.79,65.26-124.74,102-201,1.31-9.31-.64-10-6-2-47.74,65.48-91.14,127.9-127,185l-3,7-26,58C90.52,257.84,96.29,261.5,99,267.55Z" style="fill: #a67c52"/>
        <polygon points="112 190.55 144 207.55 152 193.55 120 177.55 112 190.55" style="fill: #b3b3b3"/>
        <path d="M91,261.55l45-76L245,.55c-1.4-1.4-2.79.46-6,5-49.21,67.71-93.44,131-127,185l-31,70Z" style="opacity: 0.2"/>
        <path d="M75,314.55c-24.56,4.12-50.62,8.44-61.65,10.71a3.73,3.73,0,0,1-2.28-.26C7.55,323.5-1.81,323,1,322.55l14-3-8,2c-1-.63-7.06-.94-7-2,.08-1.47,6.68-3.69,8-4,14.64,1.09,29.08-6.68,37-20Z" style="fill: #830061"/>
        <path d="M100,287.55c-3.22,9.66-11.33,19.75-25,27-11.25-1-18.63-4.13-23-9-4.52-1.64-6.41-5.32-7-10l11-23Z" style="fill: #5e0049"/>
        <path d="M104,281.55c-2.52,12-12.85,25.06-26.5,26-14.6,1-29.82-12-26.5-26,2.76-11.62,14.5-23.38,26.5-26C91.8,252.42,107,267.49,104,281.55Z" style="fill: #973381"/>
      </g>
    </g>
    <g id="Warstwa_8" data-name="Warstwa 8">
      <g>
        <g>
          <rect x="148.47" y="10.87" width="21.68" height="280.36" transform="translate(-58.73 125.5) rotate(-36.79)" style="fill: #fbd734"/>
          <polygon points="234.58 269.8 251.95 256.81 278.41 301.25 270.46 307.21 234.58 269.8" style="fill: #f5b673"/>
          <path d="M270.35,307.29l8.06-6L290,322.72c.38,1.9-.37,2.41-2.17,1.62Z" style="fill: #445a64"/>
          <rect x="59.12" y="22.58" width="21.68" height="18" transform="translate(-4.98 48.19) rotate(-36.79)" style="fill: #ebedef"/>
          <rect x="48.34" y="8.16" width="21.68" height="18" transform="translate(1.51 38.86) rotate(-36.79)" style="fill: #d74214"/>
        </g>
        <polygon points="274.07 304.5 53.79 9.96 45.1 16.45 234.58 269.8 270.46 307.21 274.07 304.5" style="opacity: 0.22"/>
      </g>
    </g>
  </g>
</svg>
