<svg xmlns="http://www.w3.org/2000/svg" width="1320.44" height="856.31" viewBox="0 0 1320.44 856.31">
  <title>Zasób 9</title>
  <g id="Warstwa_2" data-name="Warstwa 2">
    <g id="Warstwa_3" data-name="Warstwa 3">
      <g>
        <g>
          <path d="M0,766.78c181.59,88,385.3,146.41,636.9,0C886.09,836,1122.34,834,1320,767l-.62-767H0Z" style="fill: #161a39"/>
          <path d="M629,771c93.43-224.68,684-211.4,691-4l-52,16C1069.54,845.39,881.05,845.71,629,771Z" style="fill: #1c3987"/>
          <g>
            <path d="M1188.61,662.55l22.76,7.79c-.62-17,3.85-33.25,4.6-54.08C1205.62,629.68,1193.57,644.4,1188.61,662.55Z" style="fill: #27a4aa"/>
            <path d="M1186.75,656.58l11.82,3.13,2.48-52.18C1192.56,620.55,1188.73,637.74,1186.75,656.58Z" style="fill: #27a4aa"/>
            <path d="M1174.86,650.62l-11.21,3.21c-.29-16.42,2.54-33.69,8.31-51.77C1171.12,620.26,1171.83,636.72,1174.86,650.62Z" style="fill: #27a4aa"/>
            <polygon points="1171.15 648.3 1178.6 649.56 1182.05 595.28 1171.15 648.3" style="fill: #27a4aa"/>
            <path d="M1167.86,653.41l-7.3,4.42a243.8,243.8,0,0,1-13-41.77C1156.91,626.41,1163.23,639.22,1167.86,653.41Z" style="fill: #27a4aa"/>
            <path d="M1201.9,660.83l6.41,10.13,23-35.16C1219.07,641.82,1209,649.92,1201.9,660.83Z" style="fill: #27a4aa"/>
            <path d="M1152.11,662.06c-1.14-.19-13.37-43-13.37-43l27.54,39.69Z" style="fill: #27a4aa"/>
            <polygon points="1157.6 657.9 1149.26 638.96 1161.9 656.93 1157.6 657.9" style="fill: #22b573"/>
            <polygon points="1165.47 653.57 1154.55 635.89 1169.78 652.6 1165.47 653.57" style="fill: #22b573"/>
            <polygon points="1191.86 651.22 1198.24 632.5 1195.94 654.74 1191.86 651.22" style="fill: #22b573"/>
            <polygon points="1200.46 662.28 1206.84 643.57 1204.53 665.8 1200.46 662.28" style="fill: #22b573"/>
            <path d="M1203.43,671.83l6.4,10.13,21.86-29.12C1219.49,658.85,1210.48,660.92,1203.43,671.83Z" style="fill: #27a4aa"/>
            <path d="M1208.15,678.28l6.4,10.13,21.33-23C1223.68,671.44,1215.2,667.37,1208.15,678.28Z" style="fill: #27a4aa"/>
            <polygon points="1205.92 671.12 1212.3 652.4 1209.99 674.64 1205.92 671.12" style="fill: #22b573"/>
            <path d="M1149.6,675.78c-1.15-.19-11.21-38.65-11.21-38.65l25.38,35.38Z" style="fill: #27a4aa"/>
            <polyline points="1164.63 651.73 1169.29 632.72 1168.93 650.76" style="fill: #22b573"/>
            <polygon points="1206.09 673.41 1222.07 660.27 1210.16 676.93 1206.09 673.41" style="fill: #22b573"/>
            <path d="M1207.7,664.64c-1.39-7.67-8.48-13.25-17.32-18.19a65.12,65.12,0,0,0-30,5.7c-4.89,4-8.87,7.87-9.76,11.37-5.26,5-7.48,10.23-7.59,15.69,8,4.18,39.94-7.61,64.63-14.57" style="fill: #b3b3b3"/>
            <polygon points="1159.79 468.81 1147.73 534.65 1151.16 535.22 1163.22 469.39 1159.79 468.81" style="fill: #6a3c1d"/>
            <polygon points="1266.73 487.38 1254.67 553.21 1258.1 553.79 1270.16 487.96 1266.73 487.38" style="fill: #6a3c1d"/>
            <path d="M1168.21,667.6l20,3.37c6-44.72,12.88-88.35,20.53-124.92l-15.55-2C1187.86,580.79,1178.71,624.16,1168.21,667.6Z" style="fill: #6a3c1d"/>
            <polygon points="1139.21 536.04 1264.1 556.5 1265.9 546.62 1141.12 525.62 1139.21 536.04" style="fill: #754c24"/>
            <polygon points="1141.32 524.52 1266.21 544.98 1268.02 535.1 1143.23 514.1 1141.32 524.52" style="fill: #754c24"/>
            <polygon points="1143.33 513.55 1268.22 534 1270.03 524.13 1145.24 503.12 1143.33 513.55" style="fill: #754c24"/>
            <polygon points="1145.44 502.03 1270.33 522.48 1272.14 512.61 1147.35 491.6 1145.44 502.03" style="fill: #754c24"/>
            <polygon points="1147.76 489.41 1272.64 509.86 1274.45 499.99 1149.66 478.98 1147.76 489.41" style="fill: #754c24"/>
            <polygon points="1150.07 476.79 1274.95 497.25 1276.76 487.37 1151.98 466.37 1150.07 476.79" style="fill: #754c24"/>
            <ellipse cx="1257.86" cy="548.66" rx="1.16" ry="1.11" style="fill: gray"/>
            <ellipse cx="1258.73" cy="537.5" rx="1.16" ry="1.11" style="fill: gray"/>
            <ellipse cx="1260.64" cy="527.07" rx="1.16" ry="1.11" style="fill: gray"/>
            <ellipse cx="1263.89" cy="515.74" rx="1.16" ry="1.11" style="fill: gray"/>
            <ellipse cx="1265.63" cy="503.03" rx="1.16" ry="1.11" style="fill: gray"/>
            <ellipse cx="1267.74" cy="491.51" rx="1.16" ry="1.11" style="fill: gray"/>
            <ellipse cx="1150.72" cy="531.19" rx="1.16" ry="1.11" style="fill: gray"/>
            <ellipse cx="1152.26" cy="519.57" rx="1.16" ry="1.11" style="fill: gray"/>
            <ellipse cx="1154.27" cy="508.6" rx="1.16" ry="1.11" style="fill: gray"/>
            <ellipse cx="1155.81" cy="496.98" rx="1.16" ry="1.11" style="fill: gray"/>
            <ellipse cx="1158.02" cy="484.91" rx="1.16" ry="1.11" style="fill: gray"/>
            <ellipse cx="1160.5" cy="474.59" rx="1.16" ry="1.11" style="fill: gray"/>
            <polygon points="1248.9 546.02 1163.04 531.57 1173.3 475.61 1259.16 490.06 1248.9 546.02" style="fill: #fff6db;stroke: #603813;stroke-miterlimit: 10;stroke-width: 4px"/>
            <ellipse cx="1258.82" cy="490.29" rx="0.87" ry="0.84" style="fill: #333"/>
            <ellipse cx="1163.38" cy="531.34" rx="0.87" ry="0.84" style="fill: #333"/>
            <ellipse cx="1248.67" cy="545.7" rx="0.87" ry="0.84" style="fill: #333"/>
            <ellipse cx="1173.53" cy="475.93" rx="0.87" ry="0.84" style="fill: #333"/>
            <text transform="matrix(1.03, 0.17, -0.18, 0.98, 1186.16, 506.1)" style="font-size: 26.772289276123047px;font-family: InkFree, Ink Free">Hire</text>
            <text transform="matrix(1.03, 0.17, -0.18, 0.98, 1193.42, 527.63)" style="font-size: 20.07921028137207px;font-family: InkFree, Ink Free">Me</text>
            <path d="M1164.47,676.59c7,6.17,16.46,10.51,28.7,12.75l19.43-1.82,11.31-.93,2.35-4.13c-3.34-7.71-11.82-13.59-22.86-18.55l-11.28-3.59C1168.74,656.18,1162.77,663.79,1164.47,676.59Z" style="fill: #cacaca"/>
          </g>
          <path d="M953.47,761.59c7,6.17,16.46,10.51,28.7,12.75l19.43-1.82,11.31-.93,2.35-4.13c-3.34-7.71-11.82-13.59-22.86-18.55l-11.28-3.59C957.74,741.18,951.77,748.79,953.47,761.59Z" style="fill: #cacaca"/>
          <g>
            <g>
              <polygon points="1255.95 69.37 1267.77 55.22 1251.32 40.06 1235.83 52.33 1255.95 69.37" style="stroke: #000;stroke-miterlimit: 10"/>
              <path d="M1264.49,53l.34-3.48c-.31-4.31-3.07-6.58-7.81-7.21l-3.22.84Z" style="stroke: #000;stroke-miterlimit: 10"/>
              <path id="lightbulb" d="M1256.34,69c-4.14-6.83-10.84-12.93-20.11-17-6.32,5.6-17.87,10.16-30,12.54-8.71,4.43-12,12.15-13.29,21.13,1.33,16.43,10.46,25.93,29.19,26.92,8.38-.24,15.51-4.35,21.12-13.15C1245.87,88.06,1250.82,76.8,1256.34,69Z" style="fill: #ffe814;stroke: #000;stroke-miterlimit: 10;stroke-width: 0.75px"/>
              <path d="M1246.2,66.45c-5.9,8.53-10.62,16.29-13.26,22.68" style="fill: none;stroke: #000;stroke-linecap: round;stroke-miterlimit: 10"/>
              <path d="M1240.44,60.76a109.36,109.36,0,0,1-22.72,13.95" style="fill: none;stroke: #000;stroke-linecap: round;stroke-miterlimit: 10"/>
              <path d="M1231.38,91.86c.48-1.46.26-2.43-2.06-1.89.48-1.74-.21-2.61-2.46-2.28.1-1.7-.41-2.78-2.47-2.27.11-1.77-.59-2.87-2.88-2.66.19-1.51-.47-2.17-2-1.89.22-1.78-.6-2.77-2.88-2.65.34-1.52-.26-2.23-2.06-1.9" style="fill: none;stroke: #000;stroke-linecap: round;stroke-miterlimit: 10"/>
              <path d="M1201.09,91.4c-.2-5.05.11-9.76,2.17-13.33-.61-1.45-1.58-1.46-2.83-.33-1.85,3.88-1,8.66.5,13.69A.08.08,0,0,0,1201.09,91.4Z" style="fill: #ffb514"/>
            </g>
            <ellipse id="Light3" cx="1164.72" cy="154.89" rx="155.73" ry="143.79" transform="translate(-5.13 45.26) rotate(-2.22)" style="fill: #88e9ff;opacity: 0.12"/>
            <ellipse id="Light2" cx="1176.78" cy="134.25" rx="107.46" ry="99.22" transform="translate(-4.32 45.71) rotate(-2.22)" style="fill: #ffe814;opacity: 0.12"/>
            <ellipse id="Light1" cx="1196" cy="114.07" rx="77.78" ry="71.81" transform="translate(-3.52 46.44) rotate(-2.22)" style="fill: #88e9ff;opacity: 0.12"/>
          </g>
          <g>
            <g>
              <polygon points="1049.9 661.49 1045.46 674.91 1079.05 678.36 1087.08 666.09 1061.89 663.79 1059.49 658.04 1049.9 661.49"/>
              <polygon points="1022.31 656.89 1022.31 674.13 993.52 676.43 983.93 666.09 1009.12 663.79 1011.51 658.04 1022.31 656.89"/>
              <rect x="1000.72" y="522.39" width="73.17" height="5.75" style="fill: #603813"/>
              <polygon points="1000.72 528.13 1000.72 597.11 1007.92 660.34 1025.91 660.34 1025.91 615.5 1035.5 559.17 1045.1 616.65 1046.3 661.49 1064.29 661.49 1066.69 612.05 1073.89 528.13 1000.72 528.13" style="fill: #272a49"/>
              <polygon points="1001.92 487.9 1000.72 522.39 1073.89 522.39 1072.69 487.9 1001.92 487.9"/>
              <path d="M981.53,489.05c1.05,3.68,6.68,6,16.79,6.9l15.59-6.9L991,486.67l-1.67-10.78-10.16,8.56Z" style="fill: #d1b4be"/>
              <path d="M1088.11,487.9c-1.12,3.68-7.14,6-17.95,6.9l-16.66-6.9,24.54-2.38,1.77-10.78,10.87,8.56Z" style="fill: #d1b4be"/>
              <polygon points="1017.51 414.33 1022.31 408.58 1047.5 408.58 1053.5 414.33 1035.5 425.82 1017.51 414.33" style="fill: #1e1e1e"/>
              <polygon points="1023.51 408.58 1023.51 418.92 1035.5 425.82 1046.3 420.07 1046.3 407.43 1023.51 408.58" style="fill: #ad8a96"/>
              <path d="M1027.11,418.92l-7.2-6.89-31.18,9.19-15.6,63.23c7,5.78,13.15,9.6,18,10.35-2.59-11.65-8.36-14.13-1.2-17.25l-1.2-35.63c-1.31-7.08,1-9.13,4.79-9.2l32.39-1.15,19.19-1.15,30-1.15c3.54.89,2.22,28.05,2.39,47.13l7.2,5.75c1.81,6.15-3.4,4-12,12.65,5.57-.54,11.68-1.91,21.59-9.2a73.63,73.63,0,0,0-7.2-24.14q-2.32-17.82-4.8-36.79c-6.37-5.43-17.56-8.73-30-11.49l-9.6,5.74-7.2,5.75Z"/>
              <path d="M1071.31,489.31l-72.78,2.2a8.41,8.41,0,0,1-8.54-8.24l-3.31-48.76c-.16-4.7,5.2-6.1,9.76-6.24l72.79-2.2a8.4,8.4,0,0,1,8.53,8.25l1.53,46.24A8.36,8.36,0,0,1,1071.31,489.31Z" style="fill: #f4f7f0"/>
              <polygon points="1009.12 383.29 1006.72 368.34 1011.51 355.7 1045.1 354.55 1055.89 363.74 1058.29 380.99 1009.12 383.29" style="fill: #442933"/>
              <path d="M1010.32,382.14l6.54-12.54a7.1,7.1,0,0,1,6-3.75l16.27-.74a10.45,10.45,0,0,1,8,3.15l10.56,11c2-3.33,3.77-3.37,6.6.58,2.38,7.86-1.85,12.84-9.59,13.79-1.91,6.42-2.44,10.94-7.8,14.37-6.39,3.29-12.42,4.6-18,3.45-6.24.18-11-7.11-15.6-14.94a9.79,9.79,0,0,1-9-9.77C1004.23,380.49,1007.61,380.3,1010.32,382.14Z" style="fill: #d1b4be"/>
              <ellipse cx="1023.51" cy="381.56" rx="3.6" ry="5.17"/>
              <ellipse cx="1042.7" cy="381.56" rx="3.6" ry="5.17"/>
              <path d="M1022.31,399.38c3.48,8.75,18.64,8.53,24,0Z" style="fill: #fff"/>
            </g>
            <g id="Symbol_1" data-name="Symbol 1">
              <g>
                <line x1="1039.5" y1="438.15" x2="1028.65" y2="474.32" style="fill: none;stroke: #1c3987;stroke-miterlimit: 10"/>
                <polyline points="1043.84 443.97 1063.79 453.12 1038.63 468.09" style="fill: none;stroke: #1c3987;stroke-miterlimit: 10"/>
                <polyline points="1031.69 442.31 1003.93 453.12 1022.15 465.59" style="fill: none;stroke: #1c3987;stroke-miterlimit: 10"/>
              </g>
            </g>
          </g>
          <path d="M856.4,94.27c-12.69-22-28.23-23.53-45.58-4.6-12.73-6.25-21.14.25-22.79,14.94-20.46,6.07-19.2,16.56-9.6,28.74h96C899.45,109.33,886.57,92.48,856.4,94.27Z" style="fill: #5f88da"/>
          <path d="M618.69,189.44c-11.82-27.07-26.29-29-42.44-5.66-11.85-7.71-19.68.31-21.22,18.42-19,7.48-17.88,20.4-8.93,35.42h89.34C658.77,208,646.78,187.25,618.69,189.44Z" style="fill: #5f88da"/>
          <path d="M892.38,259.81c-12.69-22-28.23-23.53-45.58-4.6-12.72-6.25-21.13.25-22.79,14.94-20.46,6.07-19.2,16.56-9.59,28.74h96C935.43,274.88,922.55,258,892.38,259.81Z" style="fill: #5f88da"/>
          <g>
            <path d="M831.66,724l14.9.39c-3.76-9.87-4.39-20.22-8.11-32.57C835.06,701.57,830.93,712.42,831.66,724Z" style="fill: #27a4aa"/>
            <polygon points="838.55 721.64 838.55 709.49 841.65 722.96 838.55 721.64" style="fill: #22b573"/>
            <path d="M830.32,723c1.69-12.06,3.36-22.9,8.3-34l9.06,34.71Z" style="fill: none;stroke: #000;stroke-miterlimit: 10;stroke-width: 0.5px"/>
          </g>
          <g>
            <path d="M839.15,736.87l19.13.5c-4.84-12.66-5.64-25.93-10.42-41.78C843.52,708.13,838.23,722,839.15,736.87Z" style="fill: #27a4aa"/>
            <polygon points="848 733.88 848 718.29 851.97 735.56 848 733.88" style="fill: #22b573"/>
            <path d="M837.44,735.56c2.16-15.46,4.31-29.37,10.65-43.56l11.62,44.53Z" style="fill: none;stroke: #000;stroke-miterlimit: 10;stroke-width: 0.5px"/>
          </g>
          <g>
            <path d="M816.37,743.83l20.82.54c-5.27-13.78-6.14-28.22-11.34-45.46C821.12,712.55,815.37,727.69,816.37,743.83Z" style="fill: #27a4aa"/>
            <polygon points="826 740.57 826 723.61 830.32 742.4 826 740.57" style="fill: #22b573"/>
            <path d="M814.51,742.4c2.35-16.83,4.69-32,11.59-47.4l12.64,48.45Z" style="fill: none;stroke: #000;stroke-miterlimit: 10;stroke-width: 0.5px"/>
          </g>
          <g>
            <path d="M968.66,612l14.9.39c-3.76-9.87-4.39-20.22-8.11-32.57C972.06,589.57,967.93,600.42,968.66,612Z" style="fill: #27a4aa"/>
            <polygon points="975.55 609.64 975.55 597.49 978.65 610.96 975.55 609.64" style="fill: #22b573"/>
            <path d="M967.32,611c1.69-12.06,3.36-22.9,8.3-34l9.06,34.71Z" style="fill: none;stroke: #000;stroke-miterlimit: 10;stroke-width: 0.5px"/>
          </g>
          <g>
            <path d="M976.15,624.87l19.13.5c-4.84-12.66-5.64-25.93-10.42-41.78C980.52,596.13,975.23,610,976.15,624.87Z" style="fill: #27a4aa"/>
            <polygon points="985 621.88 985 606.29 988.97 623.56 985 621.88" style="fill: #22b573"/>
            <path d="M974.44,623.56c2.16-15.46,4.31-29.37,10.65-43.56l11.62,44.53Z" style="fill: none;stroke: #000;stroke-miterlimit: 10;stroke-width: 0.5px"/>
          </g>
          <g>
            <path d="M953.37,631.83l20.82.54c-5.27-13.78-6.14-28.22-11.34-45.46C958.12,600.55,952.37,615.69,953.37,631.83Z" style="fill: #27a4aa"/>
            <polygon points="963 628.57 963 611.61 967.32 630.4 963 628.57" style="fill: #22b573"/>
            <path d="M951.51,630.4c2.35-16.83,4.69-32,11.59-47.4l12.64,48.45Z" style="fill: none;stroke: #000;stroke-miterlimit: 10;stroke-width: 0.5px"/>
          </g>
          <polyline points="1032.98 382.17 1032 390 1035 392" style="fill: none;stroke: #161a39;stroke-miterlimit: 10"/>
        </g>
        <path d="M984,772c-14.22-5.16-28.2-10.31-32-15,1.29-12.22,9.09-17,22-16,23.5,6.5,38.7,10.68,45,21l-5,5Z" style="fill: none;stroke: #000;stroke-miterlimit: 10;stroke-width: 0.5px"/>
        <path d="M648,766c-281.19-95.76-509.86-91.42-648,1,101.13,48.07,202.15,82.19,303,89C419.27,860.19,546.05,821.22,648,766Z" style="fill: #1c3987"/>
        <g>
          <rect x="314.5" y="691.57" width="11.87" height="111.43" style="fill: #765d70"/>
          <circle cx="320.33" cy="660.56" r="48.88" style="fill: #27a4aa"/>
          <circle cx="326.12" cy="657.93" r="49.93" style="fill: none;stroke: #000;stroke-miterlimit: 10"/>
        </g>
        <g>
          <rect x="426.21" y="656.14" width="9.68" height="90.86" style="fill: #765d70"/>
          <circle cx="430.96" cy="630.86" r="39.86" style="fill: #27a4aa"/>
          <circle cx="435.68" cy="628.71" r="40.71" style="fill: none;stroke: #000;stroke-miterlimit: 10"/>
        </g>
        <g>
          <rect x="228.01" y="646.86" width="7.37" height="69.14" style="fill: #765d70"/>
          <circle cx="231.63" cy="627.61" r="30.33" style="fill: #27a4aa"/>
          <circle cx="235.22" cy="625.98" r="30.98" style="fill: none;stroke: #000;stroke-miterlimit: 10"/>
        </g>
        <path d="M811,295.5H914l14-20c.08-16.48-13.79-21.52-32-23-12.36-23.41-30-23.52-51-9-13.13,1-22.08,5.37-22,17C799.85,269.6,796.73,281.38,811,295.5Z" style="fill: none;stroke: #000;stroke-miterlimit: 10"/>
        <path d="M776,131.5H879l14-20c.08-16.48-13.79-21.52-32-23-12.36-23.41-30-23.52-51-9-13.13,1-22.08,5.37-22,17C764.85,105.6,761.73,117.38,776,131.5Z" style="fill: none;stroke: #000;stroke-miterlimit: 10"/>
        <path d="M540.5,233.5h102l14.5-28c.08-16.48-13.79-21.52-32-23-12.36-23.41-30-23.52-51-9-13.13,1-22.08,5.37-22,17C528.85,199.6,526.23,219.38,540.5,233.5Z" style="fill: none;stroke: #000;stroke-miterlimit: 10"/>
        <circle cx="265" cy="815" r="7" style="fill: #27a4aa"/>
        <circle cx="174" cy="724" r="7" style="fill: #27a4aa"/>
        <circle cx="373" cy="718" r="7" style="fill: #27a4aa"/>
        <circle cx="515" cy="745" r="7" style="fill: #27a4aa"/>
      </g>
    </g>
  </g>
</svg>
