<svg xmlns="http://www.w3.org/2000/svg" width="804.71" height="431.44" viewBox="0 0 804.71 431.44">
  <title>Cloud</title>
  <g id="Warstwa_2" data-name="Warstwa 2">
    <g id="Warstwa_3" data-name="Warstwa 3">
      <path d="M237,200.59c-63.57-14.74-137.88,12.18-215,50,60.91-57.49,127.42-101.29,205-118,10.32-68.67,44.74-93.49,120-44,31.78-77.24,80-95.06,151-31,69.54-60.86,127.21-81.31,155,0,142.68-10.89,193,58.17,102,154,47,120,22.15,171.32-108,117-57.21,98.75-126.49,126.31-210,70-117.63,45.41-151.4,4.22-159-64C157.81,327.5,140.93,283.78,237,200.59Z" style="fill: #fff;stroke: #000;stroke-miterlimit: 10;stroke-width: 8px"/>
    </g>
  </g>
</svg>
