<svg xmlns="http://www.w3.org/2000/svg" width="117.83" height="61.36" viewBox="0 0 117.83 61.36">
  <title>Zasób 4</title>
  <g id="Warstwa_2" data-name="Warstwa 2">
    <g id="Warstwa_9" data-name="Warstwa 9">
      <g id="Logo">
        <g>
          <polygon points="8.07 24.12 25.84 0 37.69 0 18.74 24.12 8.07 24.12" style="fill: #214a83"/>
          <polygon points="40.06 2.58 34.14 10.33 44.8 47.38 49.54 37.9 40.06 2.58" style="fill: #214a83"/>
          <polygon points="48.35 47.38 53.09 39.63 62.57 39.63 67.31 47.38 48.35 47.38" style="fill: #214a83"/>
          <polygon points="108.77 24.12 91 0 79.15 0 98.11 24.12 108.77 24.12" style="fill: #214a83"/>
          <polygon points="76.78 2.58 82.71 10.33 72.04 47.38 67.31 37.9 76.78 2.58" style="fill: #214a83"/>
          <g>
            <polygon points="8.07 29.84 10.31 54.17 19.92 60.85 19.92 29.84 8.07 29.84" style="fill: #214a83"/>
            <polygon points="9.45 55.83 17.18 61.36 0 61.36 9.45 55.83" style="fill: #214a83"/>
          </g>
          <g>
            <polygon points="109.76 29.84 107.52 54.17 97.92 60.85 97.92 29.84 109.76 29.84" style="fill:#214a83"/>
            <polygon points="108.38 55.83 100.65 61.36 117.83 61.36 108.38 55.83" style="fill:#214a83"/>
          </g>
        </g>
      </g>
    </g>
  </g>
</svg>
