<svg xmlns="http://www.w3.org/2000/svg" width="1920.36" height="1080" viewBox="0 0 1920.36 1080">
  <title>HeadBackground_1</title>
  <g id="Warstwa_2" data-name="Warstwa 2">
    <g id="Warstwa_3" data-name="Warstwa 3">
      <g>
        <rect x="960.36" width="960" height="1080"/>
        <rect width="960" height="1080" style="fill: #fff"/>
        <g>
          <path d="M1409.23,500.91c25.21-33,48.46-34.25,69.5,0,11.2,29.64,32,27.91,60.81,0,21.13-35,41.34-32.25,60.82,0,22.93,29.06,46.1,28.49,69.5,0,16.5-36.67,37.4-30.59,60.81,0,22.2,30.9,42.21,26.66,60.81,0" style="fill: none;stroke: #fff;stroke-miterlimit: 10;stroke-width: 5px"/>
          <rect x="1413.58" y="574.75" width="373.56" height="34.75" style="fill: #fff"/>
          <path d="M1418.67,686.46c10.71,21.12,24.72,39,46.59,49H1717.2q46.32-16.69,64.93-51.07a6.62,6.62,0,0,0-5.82-9.74H1426A8.15,8.15,0,0,0,1418.67,686.46Z" style="fill: none;stroke: #fff;stroke-miterlimit: 10;stroke-width: 5px"/>
          <rect x="1383.17" y="540" width="434.37" height="8.07" style="fill: #fff"/>
          <path d="M1426.61,639.91c25.33,15.15,54.71,13.39,86.87,0,26.73-12,56-10.37,86.88,0,27.59,14.29,56.65,14.59,86.87,0q41.05-16.75,86.88,0" style="fill: none;stroke: #fff;stroke-miterlimit: 10;stroke-width: 5px"/>
          <g>
            <g>
              <path d="M1505.56,383a1.5,1.5,0,0,0,0-3,1.5,1.5,0,0,0,0,3Z" style="fill: #fff"/>
              <path d="M1557.27,397.75a1.5,1.5,0,0,0,0-3,1.5,1.5,0,0,0,0,3Z" style="fill: #fff"/>
              <path d="M1604.06,378.05a1.5,1.5,0,0,0,0-3,1.5,1.5,0,0,0,0,3Z" style="fill: #fff"/>
              <path d="M1660.7,391.59a1.5,1.5,0,0,0,0-3,1.5,1.5,0,0,0,0,3Z" style="fill: #fff"/>
              <path d="M1708.72,380.51a1.5,1.5,0,0,0,0-3,1.5,1.5,0,0,0,0,3Z" style="fill: #fff"/>
              <path d="M1739.5,408.83a1.5,1.5,0,0,0,0-3,1.5,1.5,0,0,0,0,3Z" style="fill: #fff"/>
              <path d="M1482.16,410.06a1.5,1.5,0,0,0,0-3,1.5,1.5,0,0,0,0,3Z" style="fill: #fff"/>
              <path d="M1425.12,448.78H1769a13.12,13.12,0,0,0,13.12-13.91c-2.91-41-23.16-68.86-55.53-87.59a21.26,21.26,0,0,0-10.61-2.75H1493.74a21,21,0,0,0-12.26,3.88q-52.45,37.9-62.76,92.86A6.45,6.45,0,0,0,1425.12,448.78Z" style="fill: none;stroke: #fff;stroke-miterlimit: 10;stroke-width: 5px"/>
            </g>
            <path d="M1626.77,423.81a1.5,1.5,0,0,0,0-3,1.5,1.5,0,0,0,0,3Z" style="fill: #fff"/>
            <path d="M1696.27,423.81a1.5,1.5,0,0,0,0-3,1.5,1.5,0,0,0,0,3Z" style="fill: #fff"/>
            <path d="M1574.65,423.81a1.5,1.5,0,0,0,0-3,1.5,1.5,0,0,0,0,3Z" style="fill: #fff"/>
            <path d="M1522.52,423.81a1.5,1.5,0,0,0,0-3,1.5,1.5,0,0,0,0,3Z" style="fill: #fff"/>
            <path d="M1539.9,371.68a1.5,1.5,0,0,0,0-3,1.5,1.5,0,0,0,0,3Z" style="fill: #fff"/>
            <path d="M1626.77,389.06a1.5,1.5,0,0,0,0-3,1.5,1.5,0,0,0,0,3Z" style="fill: #fff"/>
            <path d="M1678.9,363a1.5,1.5,0,0,0,0-3,1.5,1.5,0,0,0,0,3Z" style="fill: #fff"/>
            <path d="M1670.21,415.12a1.5,1.5,0,0,0,0-3,1.5,1.5,0,0,0,0,3Z" style="fill: #fff"/>
            <path d="M1453,432.5a1.5,1.5,0,0,0,0-3,1.5,1.5,0,0,0,0,3Z" style="fill: #fff"/>
            <path d="M1479.08,380.37a1.5,1.5,0,0,0,0-3,1.5,1.5,0,0,0,0,3Z" style="fill: #fff"/>
          </g>
        </g>
        <g>
          <path d="M150.9,605.82H483.48c-16.2,57-43.45,101.15-92.38,120.1h-157C181.67,704.59,163.7,657.16,150.9,605.82Z" style="fill: none;stroke: #000;stroke-miterlimit: 10;stroke-width: 5px"/>
          <path d="M257.14,333.28l221.72,231c12.56-46.2,14.7-89.84,0-129.33l-70.67-70.67-30.95-31C341.2,317.33,300.87,318.5,257.14,333.28Z" style="fill: none;stroke: #000;stroke-miterlimit: 10;stroke-width: 5px"/>
          <polygon points="450.59 368.66 460.39 416.43 404.96 361 450.59 368.66"/>
          <path d="M187.85,568.86c11.83-12.28,11.77-24.6,0-37-13.43-13.49-12.32-29,0-46.19,13.36-10.43,10.13-23.21,0-37-15.45-14.93-10-26.33,0-36.95" style="fill: none;stroke: #000;stroke-miterlimit: 10;stroke-width: 10px"/>
          <path d="M238.66,568.86c11.83-12.28,11.77-24.6,0-37-13.42-13.49-12.31-29,0-46.19,13.36-10.43,10.13-23.21,0-37-15.44-14.93-10-26.33,0-36.95" style="fill: none;stroke: #000;stroke-miterlimit: 10;stroke-width: 10px"/>
          <path d="M289.48,568.86c11.82-12.28,11.76-24.6,0-37-13.43-13.49-12.32-29,0-46.19,13.35-10.43,10.12-23.21,0-37-15.45-14.93-10-26.33,0-36.95" style="fill: none;stroke: #000;stroke-miterlimit: 10;stroke-width: 10px"/>
          <rect x="192.47" y="739.77" width="240.2" height="18.48"/>
        </g>
      </g>
    </g>
  </g>
</svg>
